<svg width="678" height="382" viewBox="0 0 678 382" fill="none" xmlns="http://www.w3.org/2000/svg">
<path d="M406.422 219.939C408.338 215.164 408.688 209.907 407.422 204.92C406.927 203.118 406.214 201.383 405.297 199.754C403.808 196.833 401.605 194.333 398.891 192.489C396.16 190.692 392.912 189.848 389.65 190.085C386.726 190.366 383.964 191.563 381.762 193.506C378.883 195.974 377.076 199.358 375.368 202.784C374.838 203.85 373.729 203.423 372.996 201.991C372.542 200.985 372.345 199.881 372.424 198.779C372.504 197.677 372.858 196.613 373.453 195.683C375.972 191.44 379.883 188.2 384.523 186.51C386.865 185.698 389.348 185.373 391.82 185.551C394.293 185.729 396.702 186.407 398.904 187.545C404.025 190.201 408.077 194.534 410.379 199.818C412.758 205.496 413.283 211.777 411.881 217.77C411.003 221.42 409.377 224.849 407.106 227.841C405.355 230.113 403.16 232.005 400.653 233.402C398.126 234.794 395.313 235.584 392.43 235.711C390.207 235.805 387.983 235.538 385.847 234.918C383.713 234.273 381.702 233.278 379.896 231.973C379.094 231.413 378.335 230.793 377.628 230.118C376.661 229.246 375.893 228.181 375.37 226.991C375.23 226.663 375.167 226.307 375.188 225.95C375.209 225.594 375.313 225.247 375.491 224.939C375.618 224.644 375.777 224.365 375.966 224.106C376.658 223.359 377.923 224.154 379.488 225.702C381.74 227.998 384.529 229.7 387.602 230.654C390.591 231.539 393.791 231.395 396.686 230.242C398.913 229.268 400.917 227.849 402.573 226.071C404.228 224.292 405.502 222.195 406.313 219.906L406.422 219.939Z" fill="#0B2330"/>
<path d="M355.559 218.779L373.708 209.504C373.708 209.504 381.486 231.72 378.893 242.936L366.794 248.327L355.559 218.779Z" fill="#F9C600"/>
<path d="M355.639 219.029C355.635 219.961 355.689 220.892 355.801 221.817C356.11 224.786 356.781 227.706 357.803 230.513C358.469 232.576 359.336 235.054 360.455 238.107C361.024 239.631 361.647 241.3 362.333 243.136C363.298 245.666 364.349 248.424 365.5 251.439L365.707 251.346C368.346 250.177 371.246 248.891 374.137 247.61L377.345 246.196C377.953 245.924 378.551 245.656 379.141 245.392C379.631 245.172 380.117 244.953 380.599 244.737L380.957 244.575C381.035 244.489 381.014 244.328 381.048 244.209L381.172 243.443L381.349 242.437C381.391 242.198 381.443 241.904 381.503 241.562C381.564 241.266 381.607 240.968 381.63 240.666C381.678 240.01 381.737 239.227 381.801 238.354C381.799 237.496 381.796 236.55 381.793 235.549C381.588 231.577 381.059 227.629 380.21 223.742C379.528 220.561 378.664 217.422 377.624 214.339C377.37 213.611 377.118 212.896 376.872 212.191C376.695 211.694 376.519 211.201 376.345 210.711C376.119 210.101 375.896 209.497 375.674 208.898C375.453 208.322 375.235 207.751 375.019 207.184L374.857 206.769C374.715 206.818 374.579 206.884 374.45 206.965L373.628 207.411C372.547 207.99 371.504 208.591 370.527 209.148L370.013 209.457L369.601 209.714L368.791 210.223C368.26 210.563 367.742 210.894 367.236 211.218C366.236 211.882 365.289 212.511 364.394 213.104C362.623 214.31 361.104 215.408 359.873 216.361C354.949 220.174 354.627 221.673 361.138 218.519C364.254 216.978 368.153 215.051 372.249 213.025L372.251 213.044L372.25 213.051V213.055L372.29 213.186L372.44 213.672C372.834 214.971 373.21 216.28 373.57 217.586C374.286 220.197 374.91 222.796 375.44 225.274C376.366 229.41 376.877 233.629 376.969 237.866C376.981 238.655 376.898 239.334 376.878 239.949C376.875 240.227 376.848 240.505 376.798 240.78C376.76 241.013 376.708 241.331 376.727 241.238C376.742 241.25 376.725 241.282 376.723 241.273L376.702 241.294L376.1 241.575L374.63 242.255C373.65 242.709 372.673 243.161 371.697 243.613C370.722 244.066 369.752 244.517 368.783 244.966C368.107 245.276 368.287 245.206 368.197 245.255L368.033 245.356L367.955 245.219L367.912 245.14L367.889 245.098L367.765 244.79C367.398 243.876 367.034 242.965 366.671 242.058C365.941 240.246 365.215 238.442 364.494 236.649C359.343 223.889 355.887 217.008 355.639 219.029Z" fill="#F9C600"/>
<path d="M348.215 145.881L365.283 139.195C365.283 139.195 367.875 157.097 369.821 164.861L357.722 170.253L348.215 145.881Z" fill="#F9C600"/>
<path d="M348.281 146.09C348.234 146.889 348.246 147.689 348.314 148.487C348.475 150.972 348.992 153.422 349.85 155.76C350.398 157.469 351.118 159.513 352.055 162.024C352.532 163.277 353.054 164.65 353.629 166.158C354.487 168.352 355.422 170.743 356.443 173.357C356.734 173.226 357.112 173.057 357.493 172.886C359.69 171.913 362.106 170.845 364.515 169.778C366.616 168.841 368.711 167.906 370.604 167.062C370.604 167.062 370.882 166.941 371.39 166.72C371.643 166.61 371.954 166.474 372.317 166.317C372.381 166.264 372.561 166.266 372.538 166.163L372.467 165.849C372.419 165.633 372.367 165.404 372.313 165.163C372.203 164.68 372.083 164.149 371.954 163.578C371.829 163.046 371.655 162.239 371.624 162.053C371.497 161.397 371.355 160.673 371.207 159.908C370.629 156.834 370.012 153.055 369.566 150.407C369.215 148.341 368.853 146.337 368.476 144.414C368.265 143.344 368.059 142.296 367.857 141.27C367.548 139.583 367.246 137.936 366.95 136.329C365.315 137.055 363.725 137.761 362.185 138.445L361.671 138.68L361.368 138.833L360.768 139.14C360.374 139.345 359.988 139.545 359.608 139.743C358.092 140.541 356.71 141.309 355.476 142.029C353.564 143.104 351.735 144.32 350.003 145.665C347.731 147.543 348.386 148.154 353.048 146.462C355.776 145.442 359.236 144.148 363.291 142.632L363.285 142.653L363.283 142.654L363.366 143.21L363.553 144.437C363.812 146.071 364.072 147.703 364.326 149.304C364.85 152.502 365.392 155.564 365.904 158.228C366.173 159.562 366.422 160.796 366.645 161.896C366.766 162.438 366.878 162.949 366.984 163.421C366.985 163.411 366.993 163.438 366.999 163.444C367.015 163.488 366.955 163.497 366.965 163.5C365.282 164.286 363.606 165.068 361.933 165.848C361.076 166.25 360.22 166.65 359.367 167.048L359.207 167.124C359.199 167.127 359.189 167.132 359.181 167.139L359.151 167.159L359.086 167.204L358.935 167.301L358.793 167.063C358.515 166.4 358.24 165.738 357.965 165.08C357.363 163.634 356.764 162.197 356.169 160.768C351.693 150.062 348.614 144.33 348.281 146.09Z" fill="#F9C600"/>
<path d="M406.796 241.582L410.744 245.257C410.818 245.326 410.877 245.41 410.914 245.503C410.953 245.597 410.971 245.698 410.966 245.799C410.962 245.9 410.936 245.999 410.89 246.089C410.843 246.18 410.778 246.258 410.699 246.321L391.841 261.074C391.768 261.13 391.685 261.173 391.597 261.197C391.507 261.222 391.414 261.23 391.324 261.218C391.232 261.207 391.143 261.178 391.062 261.133C390.983 261.087 390.912 261.027 390.855 260.955L386.705 255.657C386.646 255.582 386.603 255.495 386.579 255.403C386.555 255.311 386.55 255.214 386.564 255.12C386.579 255.025 386.612 254.934 386.663 254.853C386.714 254.772 386.781 254.703 386.859 254.648L405.918 241.517C406.05 241.426 406.208 241.383 406.368 241.395C406.528 241.407 406.679 241.473 406.796 241.582Z" fill="#51CEBC"/>
<path d="M390.428 255.717C390.391 255.767 390.414 255.809 390.42 255.877C390.466 255.989 390.316 255.85 390.851 256.586L391.419 257.39L391.49 257.561C391.555 257.668 391.588 257.848 391.713 257.937C391.855 257.987 391.95 257.866 392.09 257.817C392.152 257.783 392.211 257.744 392.265 257.701L392.842 257.239C393.302 256.869 393.764 256.501 394.247 256.162L404.525 249.023C405.757 248.159 406.936 247.22 408.056 246.213C408.212 246.026 408.51 245.889 408.375 245.595C408.182 245.406 407.975 245.233 407.752 245.08C407.662 245.004 407.577 244.93 407.497 244.85L407.147 244.479C406.748 244.059 406.38 243.612 406.045 243.141C405.613 242.529 406.497 241.727 407.74 241.305C408.387 241.082 409.073 240.989 409.756 241.03C409.925 241.042 410.094 241.066 410.26 241.1C410.467 241.129 410.664 241.207 410.834 241.325C411.395 241.666 411.921 242.06 412.403 242.502L412.891 242.951C413.279 243.306 413.589 243.738 413.799 244.219C413.977 244.612 414.086 245.032 414.12 245.463C414.156 245.936 414.106 246.412 413.97 246.866C413.837 247.294 413.631 247.696 413.36 248.052C413.005 248.487 412.588 248.868 412.123 249.182L410.723 250.243L409.822 250.907L409.101 251.419C407.172 252.775 405.183 254.063 403.13 255.283C400.612 256.771 398.357 258.788 395.962 260.541L393.3 262.506C392.823 262.828 392.287 263.052 391.722 263.167C391.442 263.212 391.156 263.199 390.881 263.129C390.607 263.058 390.35 262.932 390.125 262.759C389.207 261.955 388.41 261.021 387.76 259.989L385.988 257.57L385.704 257.19C385.332 256.674 385.065 256.089 384.92 255.469C384.866 255.15 384.903 254.823 385.025 254.523C385.155 254.257 385.327 254.012 385.537 253.8C386.015 253.305 386.561 252.879 387.16 252.536L388.678 251.54C391.225 249.878 393.821 248.26 396.269 246.495C398.174 245.122 399.886 243.553 401.679 242.069C402.075 241.743 402.436 241.387 402.849 241.078C403.365 240.619 403.983 240.293 404.654 240.126C404.713 240.117 404.774 240.112 404.834 240.111C404.93 240.118 405.026 240.1 405.113 240.057C405.376 239.977 405.655 239.967 405.922 240.031C406.12 240.074 406.301 240.17 406.448 240.309C406.594 240.45 406.697 240.626 406.749 240.822C406.798 240.969 406.813 241.124 406.796 241.278C406.778 241.432 406.728 241.58 406.648 241.712C406.582 241.808 406.507 241.897 406.424 241.979L406.312 242.101L406.315 242.096C406.32 242.09 406.316 242.097 406.316 242.097V242.093L406.318 242.097L406.322 242.102V242.103C406.182 241.901 407.534 243.856 406.962 243.029L406.961 243.03V243.031L406.958 243.037L406.951 243.049L406.939 243.073L406.886 243.169C406.721 243.449 406.523 243.709 406.293 243.94C403.201 246.964 399.822 249.68 396.205 252.052C393.807 253.718 389.625 256.434 390.582 255.737L390.428 255.717Z" fill="#0B2330"/>
<path d="M328.446 133.019C330.58 132.852 332.729 132.995 334.822 133.446C336.954 133.915 338.989 134.75 340.835 135.914C342.181 136.693 343.433 137.622 344.569 138.682C348.105 142.489 350.761 147.025 352.351 151.968C353.098 154.065 353.843 156.16 354.498 158.256C355.52 160.909 356.089 163.714 356.183 166.555C356.15 167.484 354.947 167.461 353.709 166.912C353.026 166.652 352.414 166.24 351.917 165.707C351.419 165.174 351.05 164.535 350.837 163.838C349.734 158.618 348.188 153.502 346.214 148.545C344.915 145.635 342.935 143.078 340.441 141.091C337.84 138.873 334.563 137.604 331.144 137.493C328.917 137.444 326.692 137.624 324.503 138.028C321.195 138.581 318.068 139.919 315.389 141.932C313.472 143.545 311.967 145.588 310.997 147.894C310.77 148.383 310.644 148.902 310.427 149.39C309.746 151.253 309.386 151.737 308.075 151.922C307.777 151.968 307.478 152.051 307.19 152.077C306.216 152.2 305.561 150.966 305.897 149.141C306.45 146.356 307.671 143.745 309.456 141.535C311.307 139.248 313.612 137.369 316.227 136.017C320.028 134.127 324.188 133.067 328.431 132.906L328.446 133.019Z" fill="#0B2330"/>
<path d="M352.381 115.313C350.665 113.396 348.6 111.82 346.295 110.67C343.925 109.553 341.381 108.852 338.773 108.596C336.807 108.442 334.833 108.461 332.87 108.654C325.66 109.391 318.632 111.371 312.099 114.506C309.139 115.88 306.276 117.455 303.531 119.221C300.007 121.451 296.723 124.051 293.124 126.14C292.027 126.788 291.399 125.772 291.59 124.168C291.758 123.127 292.136 122.13 292.703 121.239C293.268 120.347 294.009 119.581 294.881 118.984C302.148 113.831 310.191 109.866 318.709 107.241C321.303 106.514 323.932 105.739 326.639 105.117C329.373 104.489 332.158 104.11 334.961 103.985C338.096 103.898 341.226 104.284 344.246 105.131C347.293 106.004 350.148 107.442 352.661 109.371C355.589 111.786 358.103 114.662 360.104 117.884C360.92 119.044 361.527 120.324 362.228 121.546C362.81 122.826 363.477 124.07 363.961 125.385C365.006 127.965 365.893 130.605 366.618 133.292C367.787 137.394 368.652 141.575 369.204 145.804C369.325 146.738 369.456 147.655 369.496 148.606C369.66 152.133 369.222 153.274 367.968 153.942C367.696 154.114 367.408 154.26 367.107 154.374C366.12 154.626 365.477 153.217 365.206 150.809C364.533 143.464 362.984 136.225 360.59 129.246C358.812 124.11 355.991 119.397 352.304 115.399L352.381 115.313Z" fill="#0B2330"/>
<path d="M310.446 156.525C313.317 154.245 316.147 151.903 318.702 149.424C319.937 148.265 321.064 146.996 322.068 145.633C322.144 145.536 322.213 145.434 322.278 145.329C322.331 145.242 322.368 145.146 322.391 145.047C322.404 144.943 322.379 144.837 322.319 144.752C322.258 144.666 322.169 144.606 322.066 144.583C322.01 144.555 321.952 144.53 321.892 144.509C321.751 144.463 321.606 144.428 321.459 144.405C321.229 144.37 320.998 144.352 320.766 144.349C320.305 144.353 319.848 144.425 319.408 144.563C318.353 144.964 317.367 145.523 316.481 146.221C314.674 147.551 312.837 149.278 310.852 150.892C308.844 152.572 306.679 154.056 304.386 155.323C302.055 156.588 299.57 157.546 296.993 158.173C295.738 158.501 294.724 158.802 293.577 159.143C292.5 159.611 291.375 159.963 290.325 160.524C286.524 162.466 283.025 164.947 279.938 167.892C275.905 171.615 272.456 175.956 268.769 180.027C267.658 181.288 266.789 180.464 266.74 178.567C266.851 175.839 267.926 173.238 269.773 171.223C273.691 166.678 278.193 162.671 283.161 159.302C285.75 157.604 288.522 156.204 291.426 155.127C292.164 154.845 292.92 154.612 293.688 154.429C294.423 154.236 295.299 153.984 295.882 153.866C297.175 153.592 298.445 153.221 299.682 152.757C302.753 151.544 305.579 149.787 308.027 147.573C309.336 146.456 310.609 145.253 312.002 144.04C313.456 142.685 315.107 141.557 316.9 140.696C318.082 140.168 319.363 139.891 320.658 139.882C321.307 139.879 321.953 139.95 322.585 140.093C322.982 140.167 323.37 140.28 323.744 140.43C324.129 140.567 324.519 140.69 324.89 140.86C325.398 141.063 325.857 141.371 326.235 141.765C326.614 142.159 326.903 142.63 327.085 143.143C327.375 144.218 327.26 145.36 326.766 146.356C326.53 146.882 326.257 147.391 325.947 147.877C325.695 148.275 325.475 148.565 325.229 148.894C324.747 149.525 324.246 150.11 323.736 150.674C321.71 152.838 319.554 154.874 317.278 156.774C313.585 159.923 309.759 162.854 305.918 165.745C300.094 170.117 294.09 174.276 288.224 178.47C285.942 180.098 283.713 181.753 281.492 183.408L278.159 185.885L276.487 187.116L275.536 187.803L274.183 188.75C273.357 189.33 272.539 189.904 271.719 190.479C271.599 190.631 271.553 190.397 271.473 190.339L271.255 190.048L270.815 189.461L269.926 188.252C269.411 187.526 268.939 186.863 268.507 186.255C268.243 185.858 268.002 185.498 267.782 185.169C267.421 184.619 267.105 184.043 266.835 183.444C266.448 182.685 266.362 181.807 266.599 180.987C266.668 180.641 266.774 180.302 266.914 179.978C267.441 179.075 269.151 180.141 271.297 182.705L271.893 183.419C272.032 183.607 272.186 183.783 272.352 183.948C272.478 184.047 272.588 184.126 272.682 184.189C272.731 184.215 272.771 184.259 272.815 184.259L272.968 184.09C273.074 183.975 273.108 183.911 273.225 183.795L273.262 183.756L273.424 183.634L273.805 183.351L274.568 182.787L276.104 181.657C277.134 180.907 278.168 180.155 279.205 179.4C283.373 176.411 287.597 173.381 291.831 170.344C298.099 165.823 304.398 161.279 310.365 156.442L310.446 156.525Z" fill="#0B2330"/>
<path d="M338.211 338.87C312.251 355.588 283.711 368.649 253.539 375.819C238.463 379.499 223.036 381.553 207.522 381.949C199.751 382.131 191.977 381.792 184.25 380.935C176.484 380.112 168.808 378.599 161.311 376.414C155.764 374.84 150.404 372.674 145.322 369.954C140.266 367.153 135.232 363.722 131.865 358.262C130.218 355.535 129.281 352.44 129.138 349.26C129.008 346.236 129.316 343.208 130.052 340.27C131.526 334.682 133.675 329.292 136.453 324.221C145.876 306.537 158.365 291.133 168.173 274.354C170.636 270.256 172.706 265.937 174.36 261.453C175.135 259.316 175.628 257.089 175.829 254.825C176.041 252.766 175.658 250.689 174.724 248.84L174.35 248.204L174.011 247.774L173.56 247.376L173.007 247.006C172.096 246.517 171.126 246.148 170.121 245.91C167.86 245.396 165.553 245.11 163.235 245.056C158.397 244.944 153.557 245.125 148.741 245.6C129.262 247.367 109.851 251.026 90.0814 252.692C85.1023 253.139 80.1012 253.294 75.1038 253.157C72.5389 253.078 69.985 252.784 67.4692 252.279C66.1494 252.01 64.8601 251.61 63.6204 251.083C62.2557 250.529 61.0169 249.706 59.9777 248.664C58.8581 247.496 58.1558 245.992 57.9801 244.385C57.8498 242.94 57.987 241.483 58.3851 240.089C59.1401 237.567 60.2592 235.168 61.7072 232.969C64.4583 228.772 67.5523 224.808 70.9578 221.12C76.8654 214.574 83.1529 208.45 89.4697 202.38C95.7948 196.344 102.119 190.308 108.442 184.273C114.691 178.198 120.878 172.064 126.511 165.544C129.331 162.35 131.896 158.939 134.182 155.344C135.273 153.616 136.171 151.773 136.86 149.849C137.544 148.173 137.665 146.319 137.204 144.569C136.643 142.736 134.447 141.498 131.971 140.816C129.404 140.131 126.768 139.734 124.112 139.633C118.624 139.405 113.128 139.57 107.663 140.126C96.6487 141.138 85.6627 142.953 74.7317 144.997C52.8683 149.147 31.1722 154.3 9.62044 159.748C2.90406 161.459 -0.0661427 161.963 0.00111602 161.463C0.0639307 160.967 3.18243 159.477 8.71598 157.406C27.3273 150.734 46.4073 145.445 65.8 141.583C77.0094 139.339 88.282 137.333 99.7083 135.95C105.426 135.279 111.178 134.742 117.024 134.612C119.982 134.531 122.941 134.606 125.891 134.838C129.038 135.032 132.143 135.667 135.112 136.728C136.887 137.37 138.501 138.392 139.84 139.721C140.209 140.124 140.548 140.552 140.856 141.004C141.155 141.476 141.413 141.973 141.626 142.49C142.005 143.444 142.238 144.451 142.315 145.474C142.426 147.292 142.195 149.116 141.636 150.849C141.135 152.381 140.509 153.869 139.763 155.298C136.821 160.46 133.303 165.273 129.275 169.645C121.575 178.311 113.273 186.18 105.007 194.04C96.7372 201.884 88.3905 209.614 80.4857 217.68C76.5362 221.647 72.7959 225.817 69.28 230.173C67.5847 232.283 66.05 234.518 64.689 236.856C63.4137 238.836 62.651 241.101 62.4694 243.448C62.4533 244.219 62.7336 244.967 63.2525 245.537C63.9755 246.25 64.8516 246.789 65.8143 247.114C68.2673 247.948 70.8252 248.436 73.4136 248.562C78.9893 248.861 84.5794 248.749 90.1385 248.224C101.425 247.3 112.754 245.673 124.131 244.176C130.937 243.276 137.794 242.375 144.734 241.674C151.776 240.829 158.877 240.584 165.96 240.943C167.831 241.079 169.687 241.379 171.506 241.839C173.608 242.324 175.545 243.352 177.123 244.821C180.146 248.417 180.466 252.735 179.991 256.518C179.42 260.189 178.337 263.762 176.776 267.135C175.308 270.414 173.664 273.61 171.849 276.71C164.67 289.025 156.285 300.39 148.767 312.208C144.96 318.021 141.529 324.07 138.493 330.319C137.025 333.382 135.811 336.56 134.86 339.822C133.914 342.944 133.522 346.207 133.704 349.464C133.994 356.498 139.944 361.603 146.24 365.341C152.83 368.98 159.891 371.695 167.223 373.41C174.614 375.212 182.141 376.407 189.728 376.983C191.631 377.099 193.527 377.304 195.435 377.349L201.155 377.529C204.973 377.499 208.793 377.527 212.608 377.283C216.428 377.171 220.23 376.74 224.041 376.435C227.831 375.928 231.642 375.57 235.407 374.882C242.978 373.749 250.441 372 257.866 370.137C272.67 366.137 287.097 360.857 300.982 354.356C303.144 353.409 305.244 352.33 307.35 351.267C309.452 350.196 311.579 349.172 313.661 348.061L319.863 344.644C320.894 344.069 321.937 343.515 322.957 342.924L325.992 341.099L332.062 337.45L338 333.587C341.997 331.068 345.809 328.275 349.671 325.555C364.94 314.386 379.438 302.203 393.068 289.089C413.863 269.343 433.392 248.176 452.441 226.675C471.473 205.149 490.003 183.237 508.599 161.6C523.06 144.778 537.461 128.176 552.326 112.053C567.08 95.798 582.711 80.3567 599.148 65.7984C606.479 59.4375 613.872 53.4436 621.873 47.7414C628.108 43.262 634.609 39.1653 641.342 35.4742C645.933 32.9377 650.686 30.7048 655.57 28.7903C660.903 26.56 666.525 25.0918 672.269 24.4289C673.994 24.2378 675.725 24.1373 677.46 24.1279C678.35 24.1785 678.124 24.4595 676.901 24.9393C675.679 25.4244 673.447 26.0466 670.388 27.1045C661.015 30.2483 651.978 34.311 643.407 39.2331C634.93 44.0745 626.798 49.4962 619.07 55.4594C611.239 61.4125 603.661 67.8146 596.278 74.52C581.506 87.9275 567.423 102.428 553.633 117.4C526.076 147.387 499.645 179.25 472.475 210.654C452.298 233.974 431.751 257.15 409.851 279.145C398.899 290.137 387.584 300.806 375.747 310.916C369.83 315.97 363.756 320.847 357.526 325.546C354.442 327.933 351.209 330.119 348.042 332.393C344.897 334.7 341.592 336.777 338.337 338.925L338.211 338.87Z" fill="#0B2330"/>
<path d="M412.761 91.3648C407.722 99.6399 404.322 108.804 402.746 118.36C401.143 127.967 401.224 137.779 402.984 147.359C404.302 154.326 406.588 161.074 409.777 167.41C411.151 170.204 412.723 172.896 414.483 175.465C416.216 178.044 418.152 180.484 420.27 182.759C422.378 185.036 424.664 187.14 427.108 189.052C429.563 190.936 432.182 192.597 434.934 194.014C440.443 196.878 446.501 198.539 452.703 198.884C458.905 199.23 465.11 198.253 470.904 196.018C481.257 192.055 489.965 184.216 496.02 175.009C499.914 169.039 502.916 162.535 504.931 155.7C505.95 152.286 506.776 148.819 507.404 145.313C508.007 141.801 508.427 138.258 508.698 134.698C508.942 130.271 510.121 130.789 511.198 134.699C512.607 141.267 512.377 148.078 510.526 154.535C508.548 162.038 505.443 169.2 501.317 175.776C497.188 182.437 491.872 188.287 485.63 193.035C479.311 197.846 471.962 201.132 464.159 202.634C456.329 204.082 448.259 203.54 440.694 201.058C431.644 198 423.511 192.716 417.047 185.694C410.557 178.718 405.537 170.511 402.284 161.562C395.18 141.948 395.4 120.434 402.906 100.969C407.562 89.1976 415.112 78.3393 425.46 70.7865C429.369 67.9087 433.663 65.5919 438.217 63.9034C447.391 60.5176 457.393 60.0624 466.839 62.6004C471.493 63.8654 475.943 65.7857 480.055 68.3032C486.362 72.1876 491.914 77.1782 496.442 83.0343C500.973 88.8219 504.603 95.2597 507.207 102.13C508.386 105.132 509.369 108.206 510.151 111.335C511.222 115.482 511.827 119.734 511.954 124.014C512.069 125.962 511.751 127.911 511.022 129.72C510.806 130.306 510.536 130.871 510.217 131.407C509.752 131.971 509.299 131.051 508.907 128.956C508.496 126.864 508.065 123.593 507.314 119.452C505.202 106.918 500.009 95.1023 492.2 85.0638C488.242 80.0575 483.457 75.7628 478.05 72.3649C472.673 68.9809 466.636 66.777 460.339 65.8997C450.908 64.6754 441.335 66.5849 433.098 71.3334C424.765 76.2099 417.807 83.1152 412.871 91.4043L412.761 91.3648Z" fill="#0B2330"/>
<path d="M358.145 309.939C363.088 301.523 366.294 292.204 367.571 282.531C368.864 272.804 368.369 262.925 366.11 253.376C364.422 246.434 361.732 239.775 358.124 233.606C351.88 222.765 342.539 213.482 331.023 208.517C325.279 205.992 319.084 204.649 312.808 204.571C306.533 204.492 300.305 205.677 294.499 208.056C284.138 212.519 275.406 220.062 269.493 229.657C265.652 235.73 262.758 242.349 260.912 249.288C259.045 256.231 258.002 263.368 257.805 270.553C257.74 275.018 256.541 274.549 255.307 270.649C253.642 264.076 253.653 257.192 255.34 250.624C257.13 242.996 260.108 235.696 264.167 228.991C268.233 222.216 273.506 216.241 279.727 211.36C286.012 206.431 293.328 202.975 301.132 201.247C308.951 199.558 317.06 199.751 324.789 201.809C334.067 204.348 342.578 209.122 349.574 215.714C356.583 222.296 362.171 230.237 365.997 239.051C374.325 258.415 374.988 280.213 367.851 300.046C363.545 312.223 355.831 322.912 345.625 330.845C337.822 336.833 328.47 340.474 318.666 341.339C313.797 341.739 308.896 341.437 304.114 340.44C299.367 339.412 294.779 337.756 290.471 335.515C283.876 332.014 277.957 327.37 272.993 321.798C268.04 316.277 263.974 310.022 260.94 303.257C259.58 300.299 258.416 297.256 257.458 294.145C256.157 290.022 255.336 285.764 255.012 281.453C254.804 279.497 255.035 277.518 255.687 275.66C255.878 275.062 256.123 274.482 256.421 273.928C256.861 273.34 257.352 274.25 257.832 276.341C258.335 278.432 258.904 281.704 259.866 285.835C262.619 298.346 268.55 309.94 277.088 319.502C281.428 324.261 286.537 328.258 292.204 331.326C297.867 334.367 304.086 336.233 310.491 336.815C315.245 337.201 320.031 336.857 324.68 335.792C329.345 334.697 333.815 332.896 337.936 330.454C346.272 325.415 353.188 318.343 358.034 309.902L358.145 309.939Z" fill="#0B2330"/>
<path d="M346.27 157.742C315.158 122.802 281.52 137.135 281.52 137.135L279.071 121.318L238.885 128.651C238.885 128.651 242.342 128.436 242.774 151.945C242.969 162.58 250.44 168.36 258.592 171.502C268.674 175.27 279.836 174.925 289.664 170.54C306.065 163.399 309.972 172.84 326.825 187.074L346.27 157.742Z" fill="#0B2330"/>
<path d="M255.552 173.348C251.782 171.707 248.391 169.31 245.588 166.307C242.734 163.125 240.918 159.152 240.381 154.914C240.25 153.891 240.175 152.86 240.159 151.829L240.111 149.086C240.083 147.257 240.003 145.436 239.911 143.622C239.778 140.075 239.343 136.548 238.606 133.075C238.511 132.756 238.521 132.694 238.292 131.995C238.189 131.856 238.365 131.752 238.416 131.634L238.651 131.286L239.117 130.591L239.234 130.417C239.258 130.365 239.226 130.329 239.225 130.284L239.176 130.026L239.079 129.517C239.026 129.261 238.96 129.006 238.881 128.756C238.862 128.668 238.81 128.591 238.736 128.54L238.817 127.759L238.977 126.195L245.323 125.027L250.018 124.194L280.746 118.966L282.193 128.993L282.758 132.985L282.88 133.933C282.933 134.188 282.914 134.577 283.029 134.736C283.418 134.594 283.828 134.479 284.252 134.368L287.006 133.721L290.057 133.184L293.128 132.838C301.836 132.072 310.606 133.216 318.825 136.19C329.282 140.026 338.579 146.477 345.825 154.925C348.112 157.488 346.863 157.905 344.046 156.678C342.233 155.847 340.509 154.836 338.899 153.662C336.568 152.27 334.334 150.724 332.211 149.032C325.196 143.731 317.084 140.06 308.466 138.287C306.324 137.852 304.159 137.538 301.981 137.347C299.795 137.215 297.603 137.194 295.415 137.288C294.318 137.315 293.223 137.399 292.136 137.541C291.039 137.628 289.958 137.805 288.879 137.997C287.788 138.148 286.739 138.432 285.668 138.658C284.657 138.964 283.577 139.337 282.545 139.669C281.507 140.014 280.419 140.455 279.405 140.829C279.145 139.247 278.931 137.564 278.697 135.959L278.205 132.347C277.979 130.571 277.752 128.791 277.525 127.009L277.358 125.69L277.273 125.027C277.262 124.964 277.254 124.9 277.251 124.835L277.245 124.746C277.223 124.491 277.202 124.233 277.18 123.97L276.583 124.043L276.259 124.087L275.183 124.271C273.747 124.52 272.306 124.771 270.861 125.022C267.974 125.54 265.076 126.061 262.166 126.584C256.351 127.636 250.511 128.691 244.716 129.739L242.881 130.049L242.384 130.129L242.132 130.169C242.199 130.195 242.26 130.237 242.307 130.292C242.471 130.513 242.592 130.763 242.664 131.028C242.686 131.093 242.71 131.164 242.724 131.227L242.87 131.758C242.997 132.187 243.076 132.603 243.168 133.021C243.536 134.697 243.743 136.338 243.943 137.981C244.301 141.258 244.452 144.508 244.57 147.755C244.611 149.346 244.61 151.063 244.685 152.55C244.734 154.008 244.957 155.456 245.346 156.863C246.185 159.662 247.736 162.197 249.846 164.221C253.064 167.164 256.893 169.359 261.059 170.65C265.264 172.031 269.677 172.674 274.102 172.553C277.465 172.444 280.802 171.926 284.04 171.011C285.661 170.55 287.254 169.994 288.809 169.345C290.473 168.641 292.181 168.042 293.921 167.552C297.543 166.424 301.433 166.494 305.011 167.751C308.35 169.193 311.413 171.202 314.064 173.689C316.134 175.473 318.089 177.299 320.068 179.075C321.057 179.96 322.038 180.853 323.038 181.711L324.531 183.007L324.883 183.31L325.095 183.48L325.509 183.811L326.31 184.449C326.372 184.482 326.447 184.591 326.498 184.563L326.624 184.351L326.873 183.936L327.347 183.142L328.383 181.496C329.798 179.259 331.216 177.02 332.633 174.779C333.882 172.803 335.104 170.869 336.363 168.876C341.124 161.552 342.918 159.406 344.981 158.519C345.422 158.283 345.886 158.092 346.365 157.951C347.621 157.776 346.308 161.176 343.008 166.661C340.559 170.728 338.043 174.823 335.461 178.945C334.165 181 332.863 183.065 331.555 185.141C330.372 186.964 329.186 188.792 327.999 190.623L327.509 191.377C327.438 191.601 327.314 191.368 327.211 191.31L326.887 191.035L325.591 189.931L322.977 187.703L321.025 186.017L319.612 184.77L316.821 182.251C314.977 180.567 313.159 178.87 311.34 177.289C307.687 174.11 304.04 171.411 300.146 171.298C296.885 171.323 293.671 172.074 290.739 173.497C287.04 175.076 283.149 176.161 279.168 176.727C271.135 177.892 262.937 176.759 255.523 173.46L255.552 173.348Z" fill="#0B2330"/>
<path d="M311.757 265.923L306.286 241.794C305.614 238.86 304.81 235.961 304.151 233.028L297.226 201.981C296.182 197.394 295.004 192.813 293.814 188.3C293.265 186.277 292.717 184.252 292.167 182.226L291.364 179.182L290.333 174.972L292.03 173.6L292.847 172.948L293.387 172.534C294.109 171.986 294.84 171.452 295.582 170.93C296.925 169.988 297.53 170.69 297.341 172.151C297.191 173.076 296.893 173.971 296.459 174.802C296.193 175.326 295.901 175.835 295.581 176.329C295.568 176.442 295.597 176.555 295.663 176.649C295.729 176.742 295.826 176.809 295.937 176.835L295.982 176.841C295.986 176.852 295.979 176.816 295.994 176.866L296.038 177.021L296.12 177.334C299.13 189.207 301.87 201.136 304.208 213.275C305.607 220.533 307.641 227.948 309.357 235.304C311.224 243.397 313.091 251.492 314.959 259.589L316.148 264.749L316.732 267.439L318.584 265.963C321.544 263.543 324.506 261.122 327.472 258.698C330.469 256.24 333.45 253.773 336.379 251.282C340.934 247.408 345.223 243.402 349.626 239.455C350.595 238.586 351.516 237.702 352.509 236.843C356.191 233.663 357.578 232.908 359.168 233.179C359.531 233.207 359.89 233.274 360.237 233.378C361.206 233.807 360.189 235.68 357.635 238.178C350.062 245.59 341.592 252.83 333.015 260.012C326.696 265.241 320.363 270.481 314.014 275.735C313.226 272.479 312.437 269.22 311.648 265.96L311.757 265.923Z" fill="#0B2330"/>
<path d="M406.775 98.9365C410.904 101.738 415.025 104.552 419.165 107.334C420.675 108.35 422.259 109.25 423.76 110.276C429.059 113.894 434.315 117.574 439.628 121.166C441.986 122.76 444.427 124.251 446.853 125.697C450.064 127.406 453.13 129.373 456.021 131.579C457.766 133.047 452.959 135.266 449.405 133.067C443.104 129.17 436.957 125.045 430.99 120.514C427.422 117.804 423.387 115.485 419.579 112.96C415.393 110.184 411.226 107.372 407.049 104.579C404.478 102.86 401.912 101.131 399.328 99.4351C395.414 96.8663 391.516 94.2303 387.556 91.7986C384.477 89.9078 381.313 88.2835 378.188 86.5447C377.499 86.1619 376.802 85.8242 376.121 85.4177C373.595 83.9116 372.971 83.1491 373.097 81.7747C373.103 81.4622 373.135 81.1507 373.195 80.8438C373.466 79.8917 374.898 79.871 376.867 80.7868C382.837 83.6955 388.616 86.9783 394.171 90.6156C398.414 93.2975 402.613 96.092 406.831 98.8363L406.775 98.9365Z" fill="#0B2330"/>
<path d="M388.723 65.2882L343.639 105.991C341.933 107.458 339.727 108.212 337.478 108.093C335.23 107.974 333.114 106.994 331.572 105.356L321.994 93.7095L340.863 76.5988L355.452 62.3548L386.235 41.3345L391.564 41.65L398.336 45.5578L404.688 50.2262L403.375 56.7562L406.307 58.9062L407.056 64.1404L398.551 73.867" fill="white"/>
<path d="M357.541 64.4138L357.308 64.5686C357.3 64.5737 357.29 64.5782 357.281 64.5821L345.346 75.903C344.331 76.8558 343.339 77.8308 342.308 78.7655L339.177 81.5281L332.922 87.0574L328.329 91.2118L326.04 93.295L325.613 93.6738L325.316 93.9203L325.278 93.9506L325.659 94.4805L327.197 96.4195L330.553 100.644L332.231 102.758L333.07 103.816C333.283 104.07 333.521 104.304 333.777 104.516C334.836 105.415 336.151 105.961 337.537 106.075C338.943 106.187 340.348 105.857 341.555 105.131C341.856 104.951 342.143 104.751 342.416 104.532L343.436 103.641L345.477 101.858L353.629 94.7146C358.465 90.4628 363.241 86.0878 367.933 81.7492C373.962 76.1739 379.858 70.4025 386.279 65.2702C390.284 62.0692 388.452 69.7134 381.451 76.0946C375.247 81.7481 368.991 87.3477 362.682 92.8933C359.507 95.6478 356.33 98.406 353.147 101.168L348.333 105.273L345.914 107.318L345.307 107.828L344.48 108.444C343.918 108.821 343.323 109.15 342.703 109.423C340.193 110.522 337.367 110.673 334.753 109.848C333.455 109.437 332.245 108.788 331.182 107.938C330.904 107.725 330.642 107.493 330.397 107.243C330.157 107.023 329.934 106.785 329.731 106.53L328.696 105.257C325.485 101.348 322.255 97.4135 319.038 93.4952C320.77 91.9369 322.492 90.3867 324.205 88.8447L336.949 77.5332C339.104 75.6792 341.153 73.7141 343.2 71.7471L349.362 65.8652L354.39 61.0639C358.364 58.4055 362.337 55.7483 366.308 53.0924C372.827 48.7072 379.369 44.3063 385.849 39.9476C387.909 40.0701 389.951 40.1917 391.967 40.3114C393.047 40.9293 394.109 41.5368 395.169 42.1435C396.5 42.891 397.826 43.6359 399.12 44.3626C401.592 46.1036 404.043 47.829 406.471 49.5391C406.215 50.9766 405.959 52.4098 405.704 53.8384L405.565 54.6588L405.464 55.2832L405.373 55.9852L406.037 56.4074L408.083 57.8454C408.213 58.6556 408.343 59.4635 408.473 60.2692C408.729 61.7816 408.982 63.2721 409.239 64.7869C408.681 65.4442 408.111 66.1143 407.535 66.7911C403.213 71.8529 401.584 73.2433 399.718 73.5119C399.306 73.61 398.886 73.6633 398.463 73.6707C397.327 73.5275 398.521 70.9698 401.518 67.1181C402.119 66.3519 402.722 65.583 403.327 64.8111L404.242 63.6547C404.331 63.5186 404.359 63.4524 404.411 63.36L404.316 63.0953L404.092 61.9079L403.855 60.603L403.78 60.4167L403.655 60.3625C403.63 60.3534 403.605 60.3417 403.583 60.3274L403.076 59.9732C402.138 59.3078 401.197 58.6388 400.249 57.9659C400.553 56.3079 400.861 54.6339 401.171 52.944L401.318 52.1217L401.391 51.7097C401.399 51.6786 401.404 51.6468 401.405 51.6148L401.404 51.6L401.39 51.501L401.278 51.4612C400.763 51.0956 400.247 50.7284 399.727 50.3597C398.704 49.6269 397.674 48.8899 396.639 48.1488C394.667 47.0322 392.654 45.8909 390.633 44.7464C389.48 44.6827 388.304 44.618 387.127 44.5531V44.5545L386.991 44.6477L385.953 45.3581C376.53 51.7239 367.085 58.1048 357.618 64.5007L357.541 64.4138Z" fill="#0B2330"/>
<path d="M395.897 54.8572C393.997 53.3947 391.639 52.6494 389.242 52.7528C388.728 52.8045 388.226 52.9292 387.748 53.1229C387.251 53.3247 386.789 53.6023 386.378 53.9458L382.751 56.7451C380.988 58.1094 379.314 59.5781 377.546 60.9303L358.801 75.2039C356.043 77.3297 353.352 79.5701 350.716 81.8037C347.439 84.8125 343.966 87.6003 340.318 90.1486C337.975 91.6509 337.896 85.9928 341.836 82.7424C348.825 76.9791 355.979 71.4339 363.478 66.1755C367.962 63.0307 372.252 59.298 376.654 55.8543L383.991 50.1555C384.76 49.5746 385.614 49.1149 386.522 48.7925C387.414 48.4919 388.342 48.3109 389.282 48.2539C391.065 48.17 392.847 48.4415 394.524 49.0524C395.518 49.4163 396.478 49.8708 397.389 50.4103C397.839 50.6834 398.281 50.9707 398.704 51.2868L399.857 52.1591L404.373 55.5936L406.087 56.8898L406.945 57.5393C407.319 57.8093 407.664 58.1169 407.975 58.4574C408.632 59.2123 409.054 60.1415 409.19 61.1319C409.327 62.1223 409.173 63.1311 408.745 64.0351C408.639 64.2571 408.516 64.4713 408.378 64.6761C408.247 64.8805 408.097 65.0722 407.929 65.249L407.215 66.0499L405.793 67.6548C404.857 68.7331 403.922 69.8086 402.99 70.8817C402.272 71.7215 401.569 72.5675 400.879 73.4198C400.404 74.0011 399.865 74.6571 399.325 75.21L399.122 75.4288C399.043 75.4746 398.931 75.4326 398.837 75.4383L398.249 75.4004C397.856 75.372 397.459 75.3261 397.056 75.2578C396.667 75.1855 396.233 75.0996 395.872 74.9977C395.557 74.9169 395.246 74.8185 394.941 74.7029C394.284 74.4672 393.661 74.1438 393.09 73.7414C392.438 73.284 391.89 72.6948 391.482 72.0121C391.265 71.6516 391.093 71.267 390.966 70.8661C390.858 70.4687 390.778 70.0639 390.729 69.6552C390.653 68.4002 390.842 67.1435 391.284 65.9663C391.817 64.4014 392.914 63.0904 394.362 62.2887C394.714 62.0837 395.113 61.9751 395.519 61.9739C395.926 61.9729 396.327 62.0794 396.679 62.2826C396.98 62.4232 397.254 62.6159 397.487 62.8518C398.096 63.6755 397.078 64.6707 396.089 66.248C395.739 66.8247 395.502 67.4621 395.388 68.1267C395.326 68.452 395.297 68.7827 395.301 69.1139C395.326 69.222 395.318 69.3416 395.338 69.4316C395.371 69.4983 395.399 69.568 395.419 69.6397C395.612 69.8912 395.867 70.0885 396.159 70.2126C396.549 70.4453 397.578 70.7148 397.362 70.6011C397.387 70.5848 397.412 70.5858 397.415 70.5476L397.422 70.509L397.424 70.4933C397.426 70.4869 397.4 70.5127 397.516 70.3752L399.504 68.0246C400.849 66.4684 402.198 64.9078 403.55 63.3427C403.994 62.8263 404.788 61.9461 404.589 62.143C404.646 62.0446 404.671 61.9312 404.661 61.818C404.65 61.7011 404.605 61.5902 404.531 61.4994C404.512 61.4746 404.491 61.4525 404.466 61.4333C404.415 61.3867 404.36 61.3439 404.303 61.3051L404.072 61.1318L403.149 60.4383L395.838 54.9552L395.897 54.8572Z" fill="#0B2330"/>
<path d="M401.95 57.5101C402.721 57.0681 403.439 56.5416 404.093 55.9405C405.063 55.1526 405.856 54.1699 406.421 53.0563C406.708 52.5115 406.865 51.9075 406.879 51.292C406.892 50.6764 406.762 50.0662 406.499 49.5095C406.392 49.3726 406.295 49.2279 406.209 49.0767L405.834 48.6842C405.701 48.5542 405.54 48.4404 405.389 48.3145L405.039 48.0257C404.689 47.7332 404.32 47.4247 403.933 47.1003C402.368 45.8132 400.435 44.3051 398.008 42.4756C396.36 40.9982 394.37 39.9548 392.217 39.4401C390.064 38.9253 387.816 38.9555 385.677 39.5278C384.434 39.9106 383.263 40.4978 382.214 41.2653C381.32 41.9078 380.407 42.5644 379.494 43.2202C377.717 44.5052 375.946 45.7858 374.346 46.9426C374.346 46.9426 365.298 53.2689 360.474 56.7684C340.369 71.3528 329.126 84.9635 340.226 77.3206C352.967 68.5486 377.952 50.1784 377.952 50.1784C379.496 49.0252 381.039 47.8738 382.58 46.7243L384.832 45.0326C385.4 44.5664 386.044 44.1994 386.735 43.9473C388.143 43.4438 389.668 43.3647 391.12 43.7199C391.874 43.898 392.604 44.165 393.295 44.5154C394.038 44.9336 394.753 45.399 395.435 45.9087C398.063 47.7534 400.423 49.3619 402.471 50.709L402.852 50.9586L403.029 51.0736L403.097 51.1082C403.193 51.1502 403.285 51.2029 403.369 51.2654C403.438 51.3395 403.49 51.4277 403.521 51.5239C403.553 51.6202 403.562 51.7221 403.55 51.8225C403.55 51.9405 403.536 52.0581 403.507 52.1725L403.34 52.7396C403.209 53.1178 403.067 53.4816 402.924 53.8248C401.686 56.5731 401.022 57.8643 401.95 57.5101Z" fill="#0B2330"/>
<path d="M349.806 118.921C352.844 116.259 355.892 113.606 358.915 110.928C360.018 109.951 361.026 108.875 362.137 107.909C366.057 104.499 370.027 101.144 373.926 97.7137C375.655 96.1917 377.303 94.5648 378.908 92.9382C380.848 90.721 383.006 88.7041 385.35 86.9181C386.89 85.8828 388.27 90.7009 385.847 93.0601C381.55 97.277 377.008 101.237 372.244 104.918C369.359 107.129 366.766 109.862 364.017 112.336C360.994 115.056 357.941 117.749 354.904 120.456C353.035 122.122 351.158 123.781 349.308 125.465C346.507 128.016 343.646 130.534 340.961 133.168C338.874 135.216 337.014 137.42 335.057 139.556C334.625 140.027 334.235 140.518 333.783 140.975C332.111 142.669 331.348 142.965 330.13 142.427C329.846 142.322 329.571 142.196 329.306 142.05C328.487 141.519 328.65 140.284 329.721 138.883C333.082 134.683 336.765 130.751 340.738 127.123C343.683 124.325 346.725 121.599 349.723 118.841L349.806 118.921Z" fill="#0B2330"/>
<path d="M280.742 20.1938C278.534 21.8471 276.297 22.5322 275.182 20.3801C274.961 19.9603 274.847 19.4939 274.845 19.0203C274.844 18.5467 274.956 18.0796 275.173 17.6585C275.39 17.2373 275.705 16.8743 276.092 16.6001C276.478 16.3258 276.926 16.1483 277.396 16.0826C279.41 16.1423 283.4 16.1991 284.559 16.035C284.586 16.0311 284.592 16.0665 284.572 16.0868C283.39 17.5403 282.11 18.9124 280.742 20.1938Z" fill="#0B2330"/>
<path d="M280.795 20.1545C281.023 20.0863 281.244 19.9923 281.451 19.8742C282.013 19.5556 282.518 19.1452 282.944 18.66C283.255 18.3294 283.613 17.947 284.051 17.4825C284.249 17.2615 284.48 17.0247 284.675 16.7872C284.86 16.5562 285.178 16.2497 285.099 16.1441L285.113 15.9105C285.112 15.8644 285.132 15.844 285.094 15.7793L285.039 15.7118C284.961 15.6272 284.866 15.561 284.759 15.5179C284.653 15.4749 284.538 15.456 284.423 15.4628C283.969 15.5113 283.437 15.5288 283.04 15.5425L282.254 15.5588C281.179 15.5745 279.884 15.5411 278.819 15.5324C278.819 15.5324 278.633 15.5259 278.329 15.5157C278.177 15.5099 277.995 15.5032 277.793 15.4958C277.537 15.4783 277.281 15.4798 277.027 15.5005C276.444 15.6233 275.902 15.8938 275.453 16.2859C275.005 16.6779 274.665 17.1785 274.466 17.7396C274.291 18.1921 274.215 18.6768 274.243 19.1609C274.272 19.6451 274.404 20.1177 274.63 20.5467C274.813 20.9404 275.086 21.2855 275.427 21.5544C275.768 21.8232 276.168 22.0081 276.594 22.0943C277.267 22.184 277.953 22.0569 278.549 21.7314C278.978 21.5166 279.376 21.246 279.733 20.9265C280.321 20.402 280.569 20.0083 280.525 19.9066C280.472 19.7915 280.126 19.9794 279.385 20.4074C278.568 20.8702 277.302 21.4113 276.47 20.9243C276.022 20.6251 275.699 20.1716 275.565 19.6505C275.414 19.1307 275.452 18.5749 275.671 18.0799C275.862 17.6252 276.179 17.2344 276.585 16.9534C276.746 16.8476 276.924 16.7705 277.112 16.7258C277.291 16.6911 277.475 16.6817 277.657 16.6978L279.038 16.7199C279.837 16.7158 280.634 16.7116 281.427 16.7075L282.617 16.6796L283.133 16.6586L283.224 16.6447L283.367 16.6203C283.394 16.6342 283.341 16.6721 283.326 16.7033C283.419 16.6197 282.653 17.5241 282.307 17.9853C281.916 18.4931 281.587 18.9216 281.319 19.2708C280.799 19.9138 280.535 20.1878 280.795 20.1545Z" fill="#0B2330"/>
<path d="M286.993 8.87793C285.949 8.79474 283.871 7.55946 284.553 6.06967C284.684 5.77794 284.885 5.52215 285.137 5.32382C285.388 5.12547 285.684 4.99038 285.999 4.9299C286.314 4.86944 286.639 4.88535 286.946 4.97633C287.254 5.06729 287.535 5.23065 287.766 5.45265C288.872 6.72215 290.072 7.90754 291.355 8.99895C291.359 9.00224 291.362 9.00658 291.363 9.01141C291.364 9.01626 291.364 9.02137 291.363 9.02612C291.361 9.03087 291.358 9.03501 291.354 9.03805C291.35 9.0411 291.345 9.04289 291.34 9.0432C289.889 9.12766 288.433 9.07233 286.993 8.87793Z" fill="#0B2330"/>
<path d="M287.037 8.88633C287.164 9.05383 287.309 9.20767 287.469 9.34538C287.551 9.43104 287.64 9.50957 287.735 9.58017C287.856 9.67465 287.995 9.74483 288.142 9.78681C288.687 9.95999 289.249 10.0747 289.818 10.1292C290.531 10.2667 291.268 10.2103 291.952 9.96572C292.181 9.84417 292.359 9.64527 292.456 9.40454C292.519 9.13242 292.499 8.84728 292.397 8.587C292.281 8.17815 291.468 7.57661 290.92 7.03109C290.446 6.57537 289.976 6.12251 289.548 5.7116C289.548 5.7116 289.2 5.3352 288.855 4.88282L288.715 4.69406C288.609 4.55463 288.489 4.42715 288.355 4.31388C288.105 4.10169 287.819 3.93632 287.509 3.82569C287.012 3.65184 286.48 3.60035 285.958 3.67558C285.51 3.73709 285.082 3.89877 284.705 4.1486C284.328 4.39844 284.013 4.72994 283.782 5.11843C283.559 5.47548 283.435 5.88475 283.422 6.305C283.408 6.72526 283.505 7.14168 283.705 7.51231C284.002 8.00076 284.459 8.37213 284.998 8.56389C285.354 8.69809 285.735 8.75535 286.115 8.73189C286.757 8.68866 287.036 8.38195 287.049 8.16185C287.062 7.92005 286.999 7.79052 286.592 7.5785C286.346 7.44835 286.12 7.2841 285.92 7.09063C285.73 6.8992 285.637 6.69716 285.659 6.67022C285.65 6.65313 285.674 6.64062 285.683 6.58756C285.723 6.50517 285.776 6.43012 285.841 6.36575C285.979 6.23302 286.158 6.15155 286.348 6.13504C286.494 6.11493 286.643 6.13521 286.778 6.19362C286.779 6.20439 286.785 6.18966 286.782 6.19647C286.786 6.20313 286.776 6.18254 286.797 6.20709L286.892 6.32679C287.015 6.48451 287.144 6.62352 287.253 6.74767C287.697 7.23047 287.973 7.48858 287.973 7.48858L288.182 7.68314C288.202 7.69692 288.198 7.68774 288.207 7.69222L288.255 7.70632C288.303 7.72613 288.352 7.74909 288.398 7.77507L288.616 7.90285C288.72 7.96951 288.626 7.97204 288.617 8.00272C288.544 8.05733 288.467 8.10543 288.385 8.1465C288.204 8.24761 288.003 8.30798 287.796 8.32338C287.177 8.44091 286.894 8.63693 287.037 8.88633Z" fill="#0B2330"/>
<path d="M384.605 137.964C385.103 134.197 385.616 130.434 386.092 126.665C386.266 125.291 386.303 123.905 386.49 122.532C387.15 117.693 387.883 112.861 388.512 108.019C388.792 105.87 388.941 103.698 389.058 101.552C389.032 98.7811 389.302 96.0153 389.864 93.3018C390.325 91.6166 394.563 94.1873 394.322 97.3586C393.918 103.006 393.159 108.622 392.049 114.174C391.366 117.524 391.247 121.065 390.84 124.519C390.392 128.316 389.903 132.112 389.435 135.908C389.147 138.245 388.848 140.581 388.588 142.919C388.192 146.46 387.73 150.013 387.477 153.54C387.28 156.283 387.358 158.995 387.317 161.721C387.309 162.321 387.343 162.911 387.31 163.514C387.188 165.749 386.814 166.43 385.547 166.799C385.264 166.899 384.974 166.98 384.681 167.04C383.716 167.168 383.015 166.189 382.884 164.534C382.599 159.481 382.735 154.414 383.289 149.384C383.627 145.579 384.086 141.766 384.491 137.958L384.605 137.964Z" fill="#0B2330"/>
<path d="M342.875 85.6354C343.039 85.404 343.164 85.1384 343.307 84.8879C343.93 83.7863 343.814 83.2497 342.725 82.3279C342.475 82.1168 342.249 81.7879 341.982 81.6012C341.712 81.2228 341.413 80.8655 341.087 80.5327C339.585 79.1734 335.515 81.4443 336.098 82.4203C336.866 83.4257 337.766 84.3228 338.774 85.0872C339.308 85.4365 339.849 85.7705 340.409 86.0739C340.796 86.3345 341.27 86.4344 341.731 86.3526C342.191 86.2708 342.602 86.0137 342.875 85.6354Z" fill="#0B2330"/>
<path d="M339.548 61.7725C352.926 58.4151 360.859 44.1317 357.268 29.8694C353.676 15.6072 339.919 6.76697 326.541 10.1243C313.164 13.4817 305.23 27.7651 308.821 42.0273C312.413 56.2896 326.17 65.1298 339.548 61.7725Z" fill="white"/>
<path d="M312.8 25.5157C311.293 28.9194 310.555 32.612 310.637 36.3321C310.704 39.5936 311.415 42.8098 312.727 45.7972C314.041 48.7845 315.931 51.4843 318.29 53.7423C321.749 57.1879 326.202 59.4654 331.024 60.2545C333.436 60.6566 335.899 60.6199 338.297 60.1464C340.721 59.7077 343.049 58.8478 345.174 57.6058C348.977 55.3437 351.996 51.9753 353.826 47.9521C356.051 42.7663 356.772 37.0611 355.907 31.4862C355.716 29.7505 356.895 29.5955 358.35 30.9523C358.767 31.3511 359.142 31.7895 359.474 32.261C359.839 32.8622 360.152 33.4925 360.412 34.1456C360.727 34.9074 360.94 35.7081 361.043 36.5263C361.111 36.9587 361.163 37.407 361.201 37.8673C361.212 38.3268 361.185 38.7982 361.15 39.278C360.692 46.1955 357.71 52.7053 352.767 57.576C350.298 59.9841 347.368 61.8701 344.152 63.1209C340.936 64.3718 337.499 64.9619 334.049 64.8556C329.938 64.6996 325.903 63.6922 322.201 61.8972C318.492 60.1013 315.233 57.4951 312.669 54.2718C309.883 50.7703 307.913 46.6924 306.905 42.3353C305.923 38.0016 305.901 33.506 306.84 29.1631C308.01 23.8176 310.725 18.9324 314.648 15.113C317.636 12.2763 321.267 10.2022 325.231 9.06712C329.195 7.93206 333.374 7.76966 337.414 8.59374C343.649 9.81692 349.29 13.0982 353.429 17.9096C354.353 18.9516 355.197 20.0624 355.952 21.2325C356.515 22.1785 357.018 23.158 357.459 24.1654C357.726 24.866 357.942 25.5849 358.105 26.3165C358.318 27.2247 358.16 28.1798 357.669 28.9727C357.502 29.2906 357.298 29.5865 357.059 29.8536C356.665 30.1907 356.132 29.9315 355.554 29.2294C355.214 28.7977 354.914 28.3365 354.657 27.8512C354.25 27.2356 353.88 26.5968 353.549 25.938C352.332 23.8216 350.874 21.853 349.202 20.0718C347.487 18.3364 345.547 16.8363 343.435 15.611C339.208 13.1487 334.283 12.1532 329.429 12.7795C325.844 13.3269 322.452 14.7586 319.56 16.9449C316.683 19.2401 314.402 22.1922 312.908 25.5523L312.8 25.5157Z" fill="#0B2330"/>
<path d="M352.206 23.1831C352.206 23.1831 364.973 20.4458 367.762 25.7713C373.103 35.9698 355.932 35.6219 355.932 35.6219" fill="white"/>
<path d="M365.805 29.909C366.028 29.5728 366.128 29.1687 366.085 28.767C366.026 28.1095 365.86 27.4659 365.594 26.8615C365.512 26.7357 365.419 26.6178 365.345 26.4845C365.195 26.3901 365.064 26.2689 364.958 26.1272C363.409 24.9381 361.531 24.2546 359.579 24.1698C358.588 24.0825 357.59 24.1267 356.612 24.301C355.38 24.678 354.091 24.8296 352.806 24.7484C352.42 24.6673 352.183 23.5034 352.322 22.2991C352.459 21.0938 352.969 19.8706 353.796 19.7274C356.805 19.1579 359.912 19.3812 362.809 20.3755C363.274 20.5383 363.734 20.6995 364.197 20.8615C364.687 21.0115 365.169 21.1879 365.641 21.3899C366.711 21.7871 367.679 22.418 368.474 23.2365C368.914 23.743 369.292 24.3014 369.596 24.899C369.819 25.4018 370.009 25.918 370.166 26.4445C370.541 27.588 370.655 28.8002 370.503 29.9935C370.25 31.537 369.426 32.9296 368.194 33.8958C366.59 35.0265 364.774 35.821 362.853 36.2314C361.485 36.6106 360.17 37.1269 358.792 37.4518C358.493 37.5409 358.19 37.6142 357.884 37.6714C356.735 37.8144 356.337 37.4928 356.097 36.2685C356.033 35.9915 355.983 35.7113 355.948 35.429C355.881 35.0236 355.946 34.6071 356.134 34.2415C356.322 33.876 356.625 33.5811 356.994 33.4007C359.127 32.4829 361.361 32.07 363.192 31.4009C364.167 31.1637 365.044 30.6271 365.698 29.867L365.805 29.909Z" fill="#0B2330"/>
<path d="M304.35 45.1813L349.63 13.0111C349.63 13.0111 331.683 -3.91925 311.248 10.2564C295.381 21.2634 304.35 45.1813 304.35 45.1813Z" fill="#F9C600"/>
<path d="M324.07 2.07436C327.839 1.59675 331.664 1.84411 335.339 2.80306C338.93 3.73845 342.363 5.1977 345.527 7.13367C346.113 7.46112 346.663 7.84479 347.228 8.20329C347.666 8.47276 348.09 8.76483 348.497 9.07832L349.796 10.0583C350.701 10.7011 351.392 11.4079 352.191 12.0867L352.764 12.6049L353.052 12.8665L353.197 12.9996L353.269 13.0661C353.269 13.0873 353.227 13.1066 353.208 13.1269L352.013 14.0871C350.697 15.2072 348.97 16.3252 347.442 17.3869L344.678 19.2381L339.148 22.9355L328.108 30.3572C324.853 32.5658 321.655 34.895 318.518 37.2173C314.587 40.3471 310.474 43.2431 306.202 45.8902C303.476 47.4496 304.126 41.534 308.812 38.151C317.116 32.1542 325.573 26.3863 334.359 20.9235C336.985 19.2902 339.58 17.5021 342.168 15.675L345.256 13.4828L345.888 13.0415C345.917 13.0031 346.053 12.9709 345.995 12.927L345.857 12.8008L345.574 12.5536C345.355 12.3712 345.156 12.2032 344.88 12.011C344.25 11.5782 343.531 11.1059 342.825 10.7105C342.128 10.2734 341.396 9.90389 340.66 9.53827C339.933 9.16136 339.185 8.82383 338.42 8.52709C335.396 7.28422 332.185 6.55252 328.921 6.362C324.874 6.17708 320.843 6.97269 317.172 8.68084C315.747 9.28833 314.378 10.0164 313.077 10.8569C311.749 11.6067 310.522 12.5212 309.425 13.5786C307.245 15.6867 305.61 18.2904 304.657 21.1671C303.338 25.7034 303.134 30.4903 304.061 35.1223C304.224 36.1505 304.468 37.1431 304.681 38.1696C305.515 41.9711 305.682 43.1791 304.753 44.3815C304.573 44.6687 304.37 44.9408 304.146 45.1953C303.405 45.9067 301.998 44.534 300.996 41.5768C299.433 37.019 298.739 32.2095 298.949 27.3967C299.138 22.1264 300.915 17.0354 304.048 12.7895C305.268 11.1999 306.691 9.77593 308.281 8.55369L309.478 7.66727L310.695 6.93524L313.138 5.48574C313.98 5.0368 314.848 4.63577 315.735 4.28457L317.055 3.71959L317.715 3.43948L318.411 3.23948L321.193 2.45488C322.133 2.23714 323.085 2.07273 324.044 1.96242L324.07 2.07436Z" fill="#0B2330"/>
<path d="M348.314 32.9855C349.883 32.9855 351.154 31.7161 351.154 30.15C351.154 28.584 349.883 27.3146 348.314 27.3146C346.745 27.3146 345.473 28.584 345.473 30.15C345.473 31.7161 346.745 32.9855 348.314 32.9855Z" fill="#0B2330"/>
<path d="M351.155 30.0994C351.237 29.9384 351.29 29.7648 351.314 29.5859C351.358 29.2786 351.332 28.9653 351.24 28.669C351.148 28.3726 350.99 28.1005 350.779 27.8724C350.409 27.4242 349.92 27.0892 349.369 26.9057C348.548 26.6319 347.653 26.6851 346.871 27.0541C346.421 27.2622 346.023 27.5653 345.702 27.9426C345.382 28.3199 345.147 28.7623 345.016 29.2391C344.872 29.7061 344.837 30.1994 344.914 30.6816C345.039 31.5198 345.47 32.2826 346.122 32.824C346.629 33.2377 347.251 33.4844 347.904 33.5307C348.556 33.5769 349.207 33.4201 349.766 33.0819C350.13 32.8668 350.436 32.5688 350.661 32.2124C350.887 31.856 351.024 31.4513 351.063 31.0316C351.087 30.4508 350.897 30.1601 350.796 30.1469C350.667 30.1309 350.629 30.3751 350.46 30.8587C350.338 31.1855 350.144 31.4807 349.891 31.7222C349.639 31.9638 349.335 32.1455 349.004 32.2541C348.672 32.3591 348.321 32.3858 347.978 32.3321C347.635 32.2785 347.309 32.1458 347.026 31.9447C346.743 31.7435 346.511 31.4795 346.348 31.1733C346.185 30.8673 346.095 30.5274 346.085 30.1808C346.077 29.924 346.115 29.6677 346.198 29.4242C346.385 28.8562 346.784 28.3825 347.314 28.1029C347.843 27.8233 348.461 27.7594 349.036 27.9248C349.418 28.0432 349.77 28.2436 350.066 28.5121C350.362 28.7805 350.596 29.1104 350.751 29.4787C350.964 29.9827 351.028 30.2635 351.155 30.0994Z" fill="#0B2330"/>
<path d="M344.787 45.46C344.651 45.7552 344.621 46.0883 344.703 46.4029C344.927 47.8565 346.394 48.4868 348.89 48.0332C349.454 47.9453 350.227 47.8677 350.611 47.7631C350.611 47.7631 350.93 47.7549 351.332 47.7443C351.729 47.7386 352.207 47.7315 352.543 47.7267C353.927 47.496 355.195 46.8164 356.153 45.7933C356.6 45.4034 356.993 44.9564 357.322 44.4637C357.362 44.3569 357.379 44.243 357.374 44.1292C357.368 44.0154 357.338 43.9039 357.288 43.8019C357.236 43.6999 357.165 43.6095 357.077 43.5363C356.99 43.4631 356.888 43.4087 356.778 43.3764C355.347 42.8533 353.819 42.6416 352.298 42.7554C351.422 42.7977 350.553 42.9187 349.699 43.1169C349.401 43.1965 349.159 43.2687 348.955 43.3363L348.299 43.5398C347.862 43.6763 347.445 43.7835 347.036 43.8902C346.523 43.9727 346.041 44.1923 345.643 44.5257C345.577 44.5954 345.515 44.6692 345.458 44.7465C345.422 44.7844 345.402 44.8273 345.37 44.8678C345.318 44.9301 345.256 45.0176 345.201 45.0751C345.152 45.1233 345.086 45.1961 345.028 45.2451L344.989 45.2761L344.971 45.2889L344.964 45.2946L345.119 45.1711L345.118 45.1724L345.117 45.1747L345.114 45.1797C345.099 45.2044 345.08 45.2266 345.058 45.2452C344.971 45.3184 344.85 45.3515 344.787 45.46Z" fill="#0B2330"/>
<path d="M371.932 0.67467C372.375 0.386607 372.881 0.206903 373.406 0.150109C373.932 0.0933144 374.464 0.161042 374.959 0.347785C375.454 0.534526 375.898 0.835044 376.255 1.22498C376.612 1.61492 376.872 2.08331 377.013 2.5922C377.685 5.14016 375.682 6.14256 373.942 6.14256C370.997 6.17256 368.051 6.01238 365.126 5.66304C365.075 5.65768 365.074 5.57509 365.115 5.54507C366.382 4.63126 370.549 1.63068 371.932 0.67467Z" fill="#0B2330"/>
<path d="M371.867 0.719057C371.609 0.799735 371.356 0.894621 371.109 1.00329C370.298 1.34513 369.526 1.7711 368.805 2.27417C368.267 2.6244 367.625 3.06227 366.836 3.61489C366.739 3.81916 362.89 5.77821 365.306 6.2428C365.813 6.32546 366.678 6.40399 366.877 6.42395C367.218 6.45578 367.567 6.48839 367.915 6.52086C368.614 6.58166 369.312 6.62852 369.944 6.65165C369.944 6.65165 370.825 6.6879 371.943 6.73414L373.714 6.76235C374.33 6.7884 374.946 6.70269 375.531 6.5094C376.089 6.32621 376.59 6.00451 376.99 5.57452C377.379 5.14225 377.621 4.59799 377.682 4.01972C377.769 3.05244 377.495 2.08732 376.913 1.309C376.437 0.675616 375.745 0.238128 374.967 0.0791214C374.409 -0.0433219 373.83 -0.0233841 373.28 0.137076C372.381 0.417265 372.094 0.886675 372.137 0.970926C372.196 1.10155 372.501 0.86197 373.398 0.752567C373.854 0.687688 374.321 0.739588 374.753 0.903412C375.183 1.06723 375.567 1.33764 375.866 1.68935C376.164 2.04105 376.369 2.46255 376.459 2.91449C376.55 3.36641 376.525 3.83401 376.386 4.27354C376.251 4.54701 376.057 4.78728 375.818 4.97718C375.579 5.16707 375.301 5.30189 375.003 5.372C374.364 5.5215 373.705 5.57346 373.05 5.52606C372.395 5.5191 371.805 5.51277 371.312 5.50753C370.327 5.47571 369.722 5.45607 369.722 5.45607L367.918 5.35537L367.016 5.28633L366.661 5.25814L366.61 5.25926L366.481 5.25893C366.451 5.23486 366.512 5.2149 366.53 5.18704L366.58 5.1435C366.628 5.09882 366.681 5.058 366.738 5.02141L367.458 4.48826C370.711 2.07798 372.435 0.605528 371.867 0.719057Z" fill="#0B2330"/>
<path d="M383.9 12.8697C385.164 12.8338 387.649 14.6766 386.667 16.9291C385.717 19.1113 383.426 18.0367 382.754 16.9142C381.864 15.4296 377.727 14.4597 377.751 13.157C378.834 13.1009 382.662 12.9047 383.9 12.8697Z" fill="#0B2330"/>
<path d="M383.839 12.8696C383.635 12.7953 383.425 12.7351 383.211 12.6891C382.53 12.5288 381.831 12.4589 381.131 12.481C380.623 12.4773 380.006 12.4885 379.244 12.5149L378.392 12.5493L377.771 12.5765L377.403 12.7374L377.215 12.8219L377.12 12.865L377.142 12.9979C377.172 13.1626 377.203 13.3309 377.235 13.5032C377.294 13.6788 377.378 13.8456 377.482 13.9988C377.643 14.1734 377.811 14.3396 377.988 14.4968C378.072 14.5728 378.188 14.639 378.288 14.7116L378.47 14.8306L378.834 15.0477C379.075 15.1798 379.324 15.3146 379.571 15.4494C380.049 15.703 380.524 15.9554 380.955 16.184L381.32 16.4109C381.591 16.5813 381.84 16.7829 382.064 17.0114C382.115 17.0699 382.161 17.131 382.205 17.1946L382.442 17.5308C382.96 18.1701 383.685 18.6096 384.493 18.774C385.003 18.8719 385.529 18.7975 385.99 18.5626C386.408 18.3301 386.75 17.9843 386.979 17.5655C387.371 16.8676 387.473 16.0441 387.262 15.2723C387.089 14.7615 386.795 14.3 386.405 13.9268C386.015 13.5537 385.54 13.2799 385.022 13.1286C384.29 12.9269 383.908 13.1248 383.911 13.2281C383.905 13.3627 384.126 13.3613 384.761 13.6974C385.177 13.9052 385.535 14.2159 385.798 14.6C386.062 14.9841 386.221 15.4288 386.265 15.8922C386.253 16.3815 386.071 16.8516 385.751 17.2217C385.61 17.373 385.43 17.4818 385.23 17.5356C385.032 17.5895 384.82 17.5864 384.622 17.5264C384.19 17.4182 383.797 17.1885 383.49 16.8643C383.425 16.7975 383.367 16.725 383.316 16.6475L383.062 16.3044C382.894 16.1085 382.705 15.9316 382.499 15.7766C382.138 15.4977 381.752 15.2528 381.345 15.0454L380.044 14.3846L379.421 14.063L378.922 13.7726C378.888 13.7572 378.785 13.6958 378.801 13.6377L378.899 13.6188L378.961 13.6086L379.291 13.5856C382.487 13.3663 384.265 13.0871 383.839 12.8696Z" fill="#0B2330"/>
<path d="M489.345 108.82C489.403 108.327 489.416 107.831 489.385 107.336C489.385 106.693 489.314 106.052 489.172 105.426C488.925 104.534 488.614 103.661 488.241 102.815C486.795 99.6498 484.923 96.6975 482.674 94.0404C481.982 93.1514 481.121 92.2542 480.318 91.3144C479.472 90.4116 478.569 89.5645 477.765 88.793C477.765 88.793 476.611 87.7414 475.084 86.4696C474.285 85.878 473.419 85.1951 472.54 84.5927C471.633 84.0287 470.759 83.4844 470.038 83.0356C467.228 81.4897 464.172 80.439 461.004 79.9298C458.8 79.6038 456.557 79.6334 454.363 80.0175C451.201 80.7427 450.858 81.6188 454.292 81.8875C459.261 82.4225 464.068 83.9645 468.418 86.4188C470.263 87.4874 472.025 88.6937 473.688 90.0275C474.317 90.5499 474.826 90.9718 475.177 91.2634C475.362 91.411 475.537 91.5704 475.7 91.7406C478.682 94.4264 481.323 97.4678 483.561 100.796C484.456 102.23 485.331 103.464 485.969 104.596C486.657 105.702 487.241 106.626 487.678 107.361C488.596 108.808 489.196 109.37 489.345 108.82Z" fill="#0B2330"/>
<path d="M423.325 157.997C423.322 158.493 423.365 158.988 423.451 159.476C423.523 160.115 423.666 160.743 423.878 161.351C424.223 162.209 424.631 163.041 425.097 163.84C426.89 166.823 429.082 169.548 431.616 171.935C432.403 172.741 433.36 173.536 434.264 174.38C435.206 175.182 436.199 175.923 437.084 176.599C437.084 176.599 438.349 177.515 440.01 178.607C440.871 179.105 441.808 179.687 442.749 180.186C443.713 180.646 444.643 181.089 445.41 181.453C448.376 182.675 451.532 183.376 454.736 183.527C456.963 183.604 459.188 183.322 461.326 182.695C464.386 181.619 464.628 180.711 461.186 180.828C456.188 180.854 451.238 179.862 446.639 177.911C444.685 177.055 442.799 176.055 440.997 174.915L439.379 173.854C439.178 173.728 438.987 173.589 438.804 173.439C435.539 171.104 432.574 168.378 429.974 165.322C428.924 163.998 427.915 162.869 427.153 161.816C426.347 160.794 425.661 159.942 425.144 159.261C424.07 157.925 423.41 157.434 423.325 157.997Z" fill="#0B2330"/>
<path d="M362.327 250.901C362.327 250.901 387.07 254.027 400.05 247.388C413.307 240.61 413.638 237.865 408.751 235.009C399.245 229.453 380.811 235.964 380.811 235.964C380.811 235.964 374.939 245.942 366.722 238.982C358.507 232.022 362.327 250.901 362.327 250.901Z" fill="#0B2330"/>
<path d="M392.546 230.309C395.853 229.921 399.194 229.941 402.494 230.371C403.336 230.457 404.194 230.706 405.038 230.873C405.884 231.063 406.731 231.413 407.57 231.685C408.402 232.032 409.219 232.485 410.027 232.899C410.923 233.429 411.747 234.074 412.477 234.818C413.154 235.516 413.648 236.37 413.914 237.305C414.118 238.25 414.025 239.236 413.646 240.126C413.475 240.584 413.242 241.017 412.952 241.412C412.815 241.613 412.664 241.824 412.521 242.004L412.147 242.402C411.682 242.899 411.176 243.356 410.634 243.768C408.927 245.02 407.123 246.134 405.24 247.103C404.333 247.568 403.429 248.051 402.517 248.481L401.153 249.144C400.685 249.36 400.167 249.556 399.678 249.76C395.79 251.249 391.716 252.194 387.57 252.57C383.975 252.967 380.372 253.233 376.817 253.336C372.245 253.656 367.65 253.425 363.133 252.651C361.708 252.337 362.078 251.184 363.368 250.165C365.1 248.872 367.229 248.219 369.39 248.319C373.866 248.506 378.346 248.559 382.776 248.337C387.16 248.19 391.517 247.596 395.779 246.566C396.091 246.485 396.412 246.414 396.719 246.318L397.608 245.978C398.209 245.732 398.788 245.55 399.414 245.233C400.661 244.63 401.889 243.989 403.095 243.31C404.294 242.629 405.459 241.912 406.555 241.163C407.073 240.777 407.629 240.402 408.071 240.003C408.297 239.828 408.51 239.635 408.704 239.426L408.986 239.149C409.034 239.101 409.078 239.048 409.119 238.994C409.212 238.9 409.283 238.787 409.326 238.662C409.37 238.537 409.385 238.404 409.369 238.273C409.314 237.999 409.162 237.754 408.941 237.584C408.459 237.18 407.934 236.831 407.373 236.545C406.79 236.212 406.177 235.934 405.542 235.713C402.794 234.816 399.903 234.423 397.013 234.556C393.287 234.665 389.584 235.166 385.964 236.051C385.169 236.247 384.37 236.439 383.583 236.66L382.404 236.992C382.173 237.05 381.945 237.122 381.723 237.208C381.167 237.994 380.542 238.728 379.855 239.404C379.043 240.228 378.121 240.937 377.115 241.51C376.071 242.12 374.922 242.529 373.727 242.717C372.511 242.875 371.275 242.775 370.102 242.422L369.16 242.133L368.302 241.714L367.448 241.287L366.685 240.764L365.467 239.934C365.238 239.783 364.992 239.663 364.732 239.576C364.489 239.486 364.221 239.491 363.981 239.592C363.869 239.658 363.771 239.744 363.693 239.849C363.615 239.952 363.558 240.071 363.527 240.196C363.461 240.432 363.424 240.676 363.416 240.921L363.41 241.983C363.421 242.858 363.535 243.745 363.619 244.667C363.981 248.105 363.955 249.257 362.856 250.228C362.632 250.468 362.388 250.689 362.125 250.888C361.271 251.423 360.158 250.081 359.541 247.358C359.315 246.347 359.126 245.314 358.991 244.243C358.922 243.707 358.868 243.162 358.837 242.601C358.797 241.995 358.792 241.388 358.821 240.782C358.828 240.576 358.847 240.371 358.878 240.167L358.964 239.464C359.046 239.007 359.154 238.554 359.288 238.108C359.556 237.266 360.002 236.491 360.596 235.835C361.201 235.206 361.986 234.778 362.843 234.606C363.711 234.433 364.609 234.489 365.447 234.77C365.901 234.913 366.336 235.107 366.743 235.35C367.184 235.572 367.601 235.839 367.987 236.145L368.597 236.583L368.906 236.794L369.397 237.13L369.879 237.477L370.366 237.703L370.841 237.948C370.999 238.012 371.152 238.031 371.304 238.082C371.887 238.27 372.505 238.324 373.112 238.241C373.718 238.159 374.298 237.941 374.81 237.604C375.466 237.225 376.067 236.757 376.591 236.212C376.884 235.925 377.159 235.622 377.418 235.303C377.899 234.681 378.345 234.03 378.753 233.357L380.218 232.867L380.942 232.636L381.336 232.518L382.909 232.074C383.96 231.795 385.013 231.538 386.073 231.303C388.198 230.848 390.339 230.449 392.523 230.197L392.546 230.309Z" fill="#0B2330"/>
<path d="M388.878 156.391L393.154 159.681C393.235 159.744 393.3 159.822 393.347 159.911C393.394 160.002 393.421 160.1 393.427 160.201C393.431 160.302 393.415 160.403 393.377 160.497C393.339 160.591 393.282 160.676 393.208 160.745L375.816 177.195C375.749 177.259 375.67 177.308 375.585 177.341C375.499 177.374 375.407 177.389 375.314 177.387C375.222 177.385 375.132 177.363 375.047 177.327C374.963 177.289 374.887 177.235 374.824 177.168L370.196 172.282C370.13 172.213 370.079 172.13 370.046 172.04C370.013 171.951 369.999 171.856 370.004 171.76C370.01 171.665 370.035 171.571 370.078 171.486C370.121 171.4 370.18 171.325 370.254 171.263L387.998 156.41C388.122 156.307 388.276 156.249 388.436 156.246C388.596 156.242 388.752 156.294 388.878 156.391Z" fill="#51CEBC"/>
<path d="M373.906 171.992C373.875 172.046 373.901 172.086 373.914 172.153C373.982 172.271 373.791 172.117 374.384 172.79L375.017 173.527C375.059 173.587 375.097 173.65 375.129 173.715C375.193 173.846 375.275 173.965 375.372 174.072C375.518 174.14 375.601 174.002 375.73 173.946L375.759 173.928C375.817 173.889 375.871 173.845 375.922 173.796L376.452 173.283C376.876 172.871 377.301 172.462 377.752 172.079L387.315 164.012C388.461 163.035 389.547 161.992 390.566 160.885C390.705 160.684 390.989 160.519 390.826 160.238C390.617 160.069 390.393 159.917 390.159 159.784C390.062 159.718 389.97 159.651 389.883 159.58L389.499 159.242C389.063 158.862 388.655 158.451 388.277 158.013C387.789 157.443 388.593 156.563 389.793 156.028C390.416 155.745 391.089 155.587 391.774 155.565C391.943 155.561 392.114 155.569 392.282 155.587C392.491 155.598 392.694 155.656 392.875 155.758C393.465 156.044 394.025 156.388 394.546 156.784L395.075 157.184C395.494 157.502 395.843 157.903 396.098 158.362C396.313 158.737 396.459 159.146 396.534 159.57C396.615 160.039 396.608 160.517 396.516 160.982C396.424 161.42 396.256 161.84 396.019 162.219C395.707 162.686 395.328 163.104 394.893 163.459L393.6 164.648L392.764 165.393L392.095 165.969C390.302 167.499 388.448 168.971 386.513 170.374C384.144 172.091 382.089 174.31 379.868 176.279L377.537 178.371C377.191 178.678 376.8 178.927 376.376 179.109C375.996 179.304 375.569 179.385 375.145 179.344C374.726 179.281 374.329 179.117 373.99 178.866C373.595 178.603 373.239 178.287 372.933 177.925L369.66 174.254L369.342 173.901C368.923 173.42 368.602 172.864 368.4 172.26C368.317 171.948 368.322 171.618 368.416 171.31C368.52 171.03 368.669 170.771 368.857 170.541C369.287 170.003 369.791 169.528 370.355 169.131L371.773 167.998C374.152 166.105 376.586 164.251 378.858 162.265C380.626 160.721 382.183 158.999 383.83 157.355C384.193 156.992 384.52 156.605 384.901 156.257C385.372 155.754 385.957 155.37 386.608 155.141C386.667 155.127 386.727 155.117 386.787 155.109C386.883 155.108 386.977 155.08 387.059 155.029C387.313 154.926 387.59 154.89 387.862 154.928C388.063 154.953 388.253 155.032 388.412 155.157C388.571 155.282 388.69 155.449 388.76 155.638C388.822 155.78 388.852 155.934 388.849 156.089C388.847 156.243 388.81 156.396 388.742 156.535C388.686 156.636 388.62 156.732 388.546 156.821L388.445 156.952L388.448 156.948C388.452 156.942 388.449 156.949 388.449 156.949L388.448 156.945L388.451 156.949L388.454 156.953C388.298 156.766 389.826 158.586 389.178 157.817L389.177 157.819L389.175 157.825L389.17 157.837L389.16 157.862L389.117 157.962C388.979 158.258 388.804 158.534 388.598 158.787C385.804 162.086 382.694 165.105 379.314 167.804C377.082 169.687 373.175 172.782 374.062 171.998L373.906 171.992Z" fill="#0B2330"/>
<path d="M360.747 176.076C360.747 176.076 380.805 169.618 388.005 157.709C395.358 145.548 394.245 143.152 388.836 143.285C378.315 143.544 369 153.1 369 153.1C369 153.1 366.925 165.013 356.745 163.484C351.828 162.745 355.216 164.902 356.915 168.324C358.734 171.987 360.747 176.076 360.747 176.076Z" fill="#0B2330"/>
<path d="M373.611 145.744C376.179 144.136 378.939 142.858 381.827 141.939C383.315 141.485 384.84 141.16 386.383 140.968C387.166 140.89 387.963 140.867 388.749 140.822C389.166 140.831 389.549 140.837 389.995 140.862L390.769 140.95C391.047 140.977 391.323 141.036 391.589 141.122C392.444 141.27 393.244 141.644 393.906 142.205C394.568 142.765 395.067 143.494 395.352 144.312C395.45 144.734 395.526 145.16 395.577 145.589L395.544 146.911C395.45 147.587 395.29 148.252 395.069 148.897C394.405 150.717 393.57 152.472 392.578 154.138C391.656 155.755 390.687 157.29 389.684 158.826C387.518 161.966 384.823 164.709 381.722 166.934C379.088 168.875 376.347 170.669 373.512 172.304C369.992 174.535 366.158 176.233 362.138 177.341C360.829 177.629 360.668 176.43 361.279 174.997C362.075 173.195 363.502 171.747 365.292 170.921C368.915 169.317 372.424 167.467 375.794 165.387C379.116 163.412 382.144 160.98 384.786 158.161C386.307 156.281 387.627 154.247 388.725 152.094C389.301 151.031 389.819 149.939 390.276 148.821C390.517 148.273 390.667 147.757 390.842 147.239L390.986 146.639C391.024 146.464 391.017 146.412 391.037 146.29C391.045 146.172 391.029 146.053 390.989 145.941C390.95 145.83 390.888 145.728 390.808 145.64C390.606 145.473 390.357 145.373 390.096 145.353C389.551 145.282 389 145.266 388.452 145.304C387.821 145.315 387.192 145.367 386.567 145.459C383.98 145.854 381.473 146.659 379.141 147.845C376.169 149.331 373.403 151.194 370.91 153.389L370.595 153.67C370.51 153.738 370.433 153.815 370.364 153.9C370.324 154.073 370.299 154.155 370.229 154.404C370.144 154.722 370.036 155.027 369.94 155.338C369.727 155.952 369.491 156.557 369.222 157.152C368.682 158.355 368.004 159.493 367.203 160.54C365.541 162.755 363.123 164.282 360.407 164.832L359.12 164.974C358.785 164.991 358.564 164.971 358.296 164.975C357.808 165.009 357.294 164.836 356.979 165.177C356.943 165.448 357.197 165.684 357.351 165.887L357.866 166.468C358.271 166.887 358.611 167.365 358.875 167.884C359.304 168.652 359.764 169.385 360.176 170.17C361.703 173.083 361.888 174.157 361.097 175.332C360.939 175.611 360.755 175.874 360.549 176.119C359.836 176.82 358.538 175.965 357.223 173.935C356.745 173.177 356.264 172.414 355.782 171.646C355.289 170.834 354.795 170.016 354.298 169.195C353.286 167.879 352.382 166.485 351.594 165.025C351.381 164.501 351.284 163.935 351.31 163.37C351.327 163.13 351.37 162.893 351.44 162.663C351.542 162.364 351.681 162.079 351.854 161.816C352.155 161.423 352.527 161.091 352.951 160.835C353.549 160.498 354.237 160.354 354.92 160.421L357.555 160.426L359.451 160.397C359.562 160.409 359.675 160.394 359.779 160.354L359.999 160.287L360.438 160.168C360.721 160.066 360.997 159.947 361.266 159.812C361.817 159.511 362.325 159.138 362.776 158.702C363.56 157.889 364.212 156.961 364.711 155.95C364.992 155.406 365.235 154.845 365.437 154.268C365.551 153.979 365.633 153.684 365.729 153.39L365.79 153.173L365.918 152.661L366.146 151.575C366.612 151.116 367.067 150.652 367.558 150.207L368.395 149.471C368.941 149.007 369.488 148.552 370.054 148.12C371.174 147.24 372.343 146.427 373.542 145.651L373.611 145.744Z" fill="#0B2330"/>
<path d="M284.424 230.797C284.006 230.894 283.599 231.033 283.21 231.212C281.984 231.724 280.907 232.534 280.074 233.567C278.202 235.77 276.62 238.2 275.363 240.801C274.935 241.63 274.479 242.547 274.071 243.483C273.629 244.406 273.265 245.355 272.952 246.22C272.952 246.22 272.829 246.516 272.628 247.002C272.452 247.496 272.208 248.182 271.934 248.95C271.395 250.526 270.944 252.131 270.584 253.757C269.544 258.105 269.657 262.649 270.913 266.939C271.824 269.498 272.721 269.797 272.787 266.871C272.832 265.186 272.968 263.085 273.186 260.887C273.436 258.694 273.801 256.515 274.28 254.36C274.823 251.897 275.538 249.474 276.419 247.111C277.536 243.978 278.953 240.96 280.651 238.098C282.077 235.695 283.301 233.881 284.026 232.657C284.76 231.444 284.936 230.759 284.424 230.797Z" fill="#0B2330"/>
<path d="M242.819 270.542C242.512 270.727 242.227 270.947 241.969 271.196C241.178 271.902 240.615 272.829 240.353 273.856C239.73 276.032 239.414 278.283 239.414 280.546C239.348 282.093 239.386 283.643 239.526 285.185C239.526 285.185 239.538 285.435 239.556 285.846C239.595 286.255 239.649 286.823 239.711 287.457C239.851 288.753 240.067 290.041 240.357 291.312C241.078 294.759 242.819 297.912 245.357 300.358C247.022 301.763 247.921 301.567 247.027 299.505C246.517 298.314 245.926 296.808 245.357 295.211C244.811 293.606 244.348 291.974 243.968 290.322C243.53 288.437 243.224 286.524 243.048 284.595C242.771 282.057 242.736 279.499 242.942 276.953C243.306 272.689 243.729 270.231 242.819 270.542Z" fill="#0B2330"/>
<path d="M232.83 281.464C232.578 281.519 232.332 281.604 232.1 281.719C231.057 282.132 230.345 283.185 230.232 286.641C230.19 287.477 230.208 288.313 230.287 289.146C230.287 289.146 230.293 289.689 230.357 290.375C230.416 291.077 230.524 291.774 230.68 292.46C230.881 293.419 231.29 294.324 231.88 295.107C232.47 295.89 233.226 296.534 234.092 296.993C235.334 297.544 236.165 297.213 235.772 296.161C235.182 294.659 234.693 293.119 234.308 291.551C234.086 290.614 233.923 289.663 233.819 288.706C233.64 287.442 233.572 286.167 233.614 284.891C233.689 282.758 233.625 281.415 232.83 281.464Z" fill="#0B2330"/>
<path d="M346.664 301.949C347.081 301.85 347.487 301.71 347.877 301.529C349.099 301.01 350.171 300.194 350.998 299.156C352.857 296.943 354.427 294.504 355.668 291.895C356.091 291.063 356.543 290.144 356.945 289.206C357.382 288.282 357.741 287.329 358.049 286.463L358.368 285.68C358.541 285.185 358.782 284.497 359.052 283.728C359.582 282.148 360.025 280.541 360.375 278.913C361.391 274.559 361.252 270.017 359.973 265.733C359.046 263.18 358.148 262.886 358.098 265.812C358.062 267.497 357.938 269.599 357.732 271.797C357.495 273.992 357.142 276.173 356.674 278.331C356.145 280.797 355.445 283.223 354.577 285.591C353.478 288.73 352.077 291.757 350.396 294.628C348.983 297.038 347.77 298.86 347.051 300.087C346.324 301.305 346.152 301.99 346.664 301.949Z" fill="#0B2330"/>
<path d="M377.81 210.459C378.992 215.019 379.956 219.623 380.702 224.273C381.074 226.597 381.393 228.928 381.642 231.284L381.824 233.21C381.897 233.714 381.912 234.224 381.867 234.731L381.128 236.061C380.779 236.662 380.498 237.19 380.141 237.748L378.927 239.353C377.571 241.058 375.754 242.34 373.691 243.046C371.486 243.658 369.131 243.419 367.094 242.378C366.288 241.983 365.522 241.513 364.805 240.975C364.461 240.708 364.111 240.445 363.796 240.152C363.635 240.005 363.468 239.87 363.315 239.714C363.16 239.557 363.02 239.434 362.782 239.18C362.559 238.952 362.351 238.711 362.158 238.458L361.784 237.537L361.386 236.495L360.601 234.434L359.031 230.308C358.498 228.937 357.889 227.601 357.321 226.244L355.583 222.188L353.676 218.216C352.454 215.537 350.998 212.99 349.615 210.397C347.066 205.87 344.144 201.562 340.883 197.518C338.81 194.965 336.582 192.541 334.209 190.263C331.907 188.009 329.445 185.923 326.844 184.023C326.038 183.449 325.877 183.032 326.085 182.613C326.268 182.195 326.994 181.871 328.081 181.853C331.377 182.042 334.487 183.439 336.817 185.775C347.331 195.735 354.294 208.213 359.819 221.055C360.598 223.002 361.416 224.951 362.26 226.903C363.119 228.848 363.841 230.86 364.661 232.84L365.867 235.822C365.925 236.032 366.054 236.213 366.233 236.334C366.557 236.646 366.902 236.936 367.263 237.204C368.492 238.25 370.052 238.83 371.668 238.839C372.526 238.685 373.344 238.355 374.068 237.867C374.791 237.381 375.405 236.748 375.87 236.011C376.199 235.619 376.491 235.194 376.739 234.746L377.133 234.056L377.331 233.731C377.322 232.831 377.25 231.933 377.114 231.044C376.58 226.483 375.816 221.951 374.824 217.467C373.622 211.93 372.084 206.471 370.219 201.121C367.447 193.009 363.739 185.246 359.172 177.989C355.593 172.544 351.37 167.548 346.595 163.109C345.58 162.109 344.459 161.273 343.409 160.3C339.371 156.863 338.129 155.74 337.931 154.027C337.849 153.651 337.805 153.268 337.799 152.883C337.862 152.339 338.452 152.237 339.466 152.556C340.956 153.082 342.352 153.839 343.605 154.8C353.592 161.89 361.83 172.324 367.715 183.734C372.078 192.232 375.499 201.179 377.917 210.418L377.81 210.459Z" fill="#0B2330"/>
<path d="M283.176 51.4391C252.903 70.0222 213.733 111.361 242.074 166.612L294.195 131.672L310.297 83.9783C310.439 83.5581 310.698 83.1871 311.044 82.9087C311.39 82.6303 311.808 82.4559 312.249 82.4062C312.691 82.3563 313.138 82.4331 313.536 82.6275C313.936 82.8219 314.271 83.1257 314.505 83.5036C317.006 87.4124 320.112 90.9014 323.706 93.8408L340.863 76.6018C340.863 76.6018 317.961 30.0867 283.176 51.4391Z" fill="#C9316F"/>
<path d="M304.556 109.986L296.438 133.381L269.117 151.384C263.485 155.15 257.856 158.913 252.231 162.674L243.549 168.39L241.947 169.45C241.681 169.623 241.411 169.813 241.15 169.969L240.738 169.094L239.089 165.602L237.862 162.989C237.523 162.308 237.27 161.585 236.978 160.881C234.593 155.252 232.828 149.38 231.716 143.37C229.43 131.3 230.203 118.852 233.966 107.157C237.37 96.9102 242.548 87.3387 249.265 78.878C253.476 73.4555 258.169 68.4235 263.287 63.8435C268.376 59.2495 273.899 55.159 279.779 51.6294C283.473 49.477 283.571 50.8205 281.205 53.6823C277.274 58.1172 273.011 62.2475 268.452 66.0376C263.357 70.4064 258.631 75.1875 254.323 80.3326C250.061 85.4694 246.341 91.0305 243.221 96.9281C240.156 102.831 237.861 109.102 236.394 115.587C235.006 122.125 234.545 128.825 235.023 135.489C235.692 143.683 237.719 151.708 241.019 159.238C241.395 160.21 241.828 161.158 242.293 162.094L242.828 163.211L242.939 163.443L243.152 163.302L243.579 163.015L245.53 161.707C249.085 159.335 252.633 156.969 256.174 154.607C268.334 146.574 280.497 138.539 292.663 130.502L296.297 119.988C300.043 109.117 303.788 98.2469 307.533 87.3777C307.929 86.2221 308.324 85.0675 308.719 83.9137C308.935 83.2415 309.284 82.619 309.743 82.0829C310.217 81.5766 310.823 81.2133 311.494 81.0344C312.162 80.8521 312.867 80.8575 313.531 81.0499C314.196 81.2423 314.795 81.6143 315.26 82.1248L317.404 85.1464C317.985 85.9405 318.603 86.7117 319.244 87.4641C319.889 88.2148 320.554 88.9498 321.249 89.6568C321.592 90.0144 321.949 90.3596 322.304 90.7046L322.946 91.3055L323.591 91.862C323.649 91.9511 323.694 91.827 323.745 91.7976L323.895 91.6492L324.196 91.3517L325.879 89.6786L334.536 81.026L338.582 76.9599C338.778 76.7532 339.008 76.5521 339.173 76.3414L338.764 75.5776L338.2 74.593L337.434 73.3128C334.034 67.7191 329.866 62.6289 325.051 58.1911C320.431 53.803 314.824 50.5836 308.701 48.8022C306.064 48.1419 303.346 47.8619 300.629 47.9708C297.01 48.1989 293.437 48.896 289.998 50.0446C289.056 50.3862 288.09 50.6547 287.106 50.8478C286.412 51.0356 285.697 51.1421 284.978 51.1649C284.39 51.2241 283.797 51.2345 283.206 51.196C282.498 51.05 283.01 50.265 284.634 48.9558C287.2 47.0212 290.106 45.5828 293.203 44.7147C299.495 42.834 306.22 42.974 312.427 45.1151C318.602 47.3603 324.222 50.901 328.909 55.498C333.583 60.0039 337.666 65.0817 341.062 70.6103C341.489 71.3028 341.912 71.9975 342.319 72.7078L342.778 73.5228L343.333 74.547C343.704 75.23 344.033 75.9162 344.384 76.6019L344.644 77.1179C344.589 77.269 344.405 77.4001 344.29 77.5422L343.506 78.3796C342.997 78.9402 342.418 79.4908 341.875 80.0473L340.003 81.9351C337.791 84.1619 335.578 86.3909 333.361 88.6222L327.911 94.092C327.013 94.9684 326.119 95.9484 325.219 96.722L323.87 97.9437C323.387 97.643 322.907 97.2055 322.428 96.8451C321.466 96.096 320.508 95.2856 319.574 94.4199L318.671 93.5561L317.952 92.8361C316.043 90.9012 314.311 88.8012 312.774 86.5609C312.802 86.5504 312.705 86.4891 312.691 86.5609C310.021 94.3645 307.348 102.178 304.671 110.001L304.556 109.986Z" fill="#0B2330"/>
<path d="M333.292 13.2472C333.056 12.9904 332.79 12.7627 332.5 12.569C331.655 11.9484 330.65 11.5811 329.604 11.5103C328.868 11.4735 327.968 11.4791 326.853 11.5286C326.237 11.5774 325.626 11.6741 325.025 11.8177C324.291 11.935 323.567 12.1101 322.861 12.3414C322.155 12.5833 321.381 12.8492 320.609 13.1146C319.872 13.4717 319.14 13.8356 318.494 14.1872C318.285 14.2765 318.087 14.3846 317.898 14.5097C317.543 14.737 317.05 15.0523 316.5 15.4052C315.92 15.7845 315.37 16.2077 314.857 16.6709C314.59 16.8972 314.328 17.1194 314.079 17.3299C313.856 17.5648 313.645 17.7868 313.454 17.9874C312.014 19.482 310.914 21.2688 310.227 23.2261C309.72 24.5807 309.483 26.021 309.529 27.4662C309.593 28.5387 309.887 29.1772 310.218 29.2667C310.552 29.3834 310.874 29.0647 311.301 28.0791C311.889 26.7493 312.566 25.4601 313.325 24.22C314.171 22.8691 315.155 21.6085 316.259 20.4578C317.139 19.5327 318.116 18.7051 319.173 17.9895C319.586 17.6655 320.03 17.3837 320.5 17.1482C322.575 15.9337 324.857 15.1111 327.231 14.7218C328.251 14.6107 329.16 14.4558 329.953 14.3285C330.625 14.2971 331.296 14.2242 331.959 14.1104C333.026 13.912 333.536 13.6176 333.292 13.2472Z" fill="#0B2330"/>
<path d="M352.531 19.9497C345.451 23.2254 337.929 25.4536 330.205 26.564L347.777 15.0609L352.531 19.9497Z" fill="#0B2330"/>
<path d="M352.447 19.8417C352.381 19.3089 352.262 18.7838 352.094 18.2741C351.913 17.5532 351.626 16.8632 351.242 16.2269C351.132 16.0389 351.011 15.8441 350.878 15.6425C350.707 15.3735 350.517 15.1176 350.309 14.8769C349.694 14.1339 348.955 13.2821 348.081 12.3083C347.232 12.8265 346.297 13.3964 345.266 14.0255L343.222 15.2902C341.894 16.126 340.351 17.1345 338.537 18.3427C336.693 19.5714 334.426 20.9559 332.624 22.1921C332.624 22.1921 331.482 22.9114 328.882 24.5492L320.806 29.6366L330.517 28.9486C332.234 28.7754 333.94 28.5113 335.629 28.1578C341.031 27.1082 346.074 24.7005 350.283 21.1623C351.513 20.0158 352.072 19.0899 351.894 18.6648C351.751 18.2196 350.933 18.2601 349.243 18.8912C346.357 19.9749 342.324 21.3582 338.589 22.3356C335.723 23.0942 332.818 23.6979 329.887 24.144L331.544 28.6013C334.706 26.4981 335.635 25.8809 335.635 25.8809C339.138 23.4534 342.609 21.0262 346.014 18.6013C346.267 18.4201 346.514 18.2425 346.756 18.0686L347.114 17.8081L347.187 17.7324L347.519 17.3875L347.945 17.6077C348 17.6326 348.05 17.6647 348.096 17.703L348.393 17.9458L348.959 18.3959C349.557 18.8716 350.182 19.3109 350.832 19.7112C351.86 20.3219 352.433 20.3888 352.447 19.8417Z" fill="#0B2330"/>
<path d="M308.886 44.1039L326.459 55.1755C338.127 52.3717 330.781 37.346 330.781 37.346L327.468 28.575L308.886 44.1039Z" fill="#0B2330"/>
<path d="M309.048 43.9885C309.764 43.8231 310.466 43.6022 311.147 43.3281C313.307 42.5155 315.325 41.366 317.125 39.9226C318.469 38.9436 320.056 37.7075 321.993 36.1376C322.955 35.3459 324.011 34.4778 325.171 33.523C325.535 33.2193 325.915 32.9015 326.312 32.5694L326.452 32.4401C327.133 34.2688 327.935 36.4228 328.621 38.2631C328.78 38.6157 328.916 38.9143 329.049 39.2064C329.049 39.2064 329.24 39.6846 329.508 40.4904C329.853 41.5364 330.128 42.6047 330.327 43.688C330.575 44.9547 330.648 46.2493 330.544 47.5356C330.472 48.5477 330.16 49.5284 329.636 50.3976C329.182 51.0984 328.563 51.6776 327.834 52.0851C327.644 52.2027 327.445 52.3074 327.24 52.3984L326.924 52.5394C326.862 52.5707 326.858 52.5868 326.858 52.5868C326.847 52.6085 326.831 52.6265 326.81 52.6385C326.79 52.6503 326.766 52.6555 326.742 52.6533C325.796 52.1498 324.88 51.6614 323.991 51.1881C323.028 50.6842 322.093 50.2105 321.186 49.7668C318.269 48.3014 315.259 47.0268 312.177 45.9514C307.61 44.4403 306.35 45.0503 310.932 48.1192C313.56 49.8793 316.881 52.0312 320.384 54.2689C321.261 54.827 322.148 55.3919 323.038 55.9584L324.581 56.9354L325.919 57.7688L326.088 57.8712L326.277 57.8172L326.656 57.7086L327.412 57.492C327.87 57.3765 328.319 57.2327 328.759 57.0614C329.068 56.9504 329.369 56.8236 329.665 56.6813C330.273 56.3931 330.855 56.0508 331.403 55.6588C332.509 54.8522 333.43 53.8195 334.106 52.6295C335.192 50.5683 335.681 48.245 335.515 45.9215C335.418 44.2307 335.134 42.5557 334.67 40.9268C334.37 39.8649 334.013 38.8198 333.602 37.7962C333.308 37.0728 333.117 36.669 333.117 36.669L333.035 36.4936L332.993 36.4089C332.996 36.4173 332.993 36.4112 332.993 36.4112C332.42 34.9771 331.848 33.5473 331.279 32.1219C330.325 29.69 329.378 27.2754 328.439 24.8783C326.481 26.56 324.539 28.2268 322.615 29.879C321.483 30.8741 320.358 31.8637 319.239 32.8479C311.363 39.7943 307.382 44.1433 309.048 43.9885Z" fill="#0B2330"/>
<path d="M327.72 43.8164C330.49 43.8164 332.737 41.5746 332.737 38.8091C332.737 36.0436 330.49 33.8018 327.72 33.8018C324.95 33.8018 322.704 36.0436 322.704 38.8091C322.704 41.5746 324.95 43.8164 327.72 43.8164Z" fill="white"/>
<path d="M332.256 36.6662C332.209 36.3734 332.125 36.0877 332.004 35.817C331.589 34.8713 330.826 34.1211 329.873 33.7219C329.008 33.3199 328.051 33.161 327.102 33.2627C325.695 33.4133 324.399 34.0957 323.479 35.1699C322.951 35.7835 322.563 36.5043 322.341 37.2823C322.119 38.0603 322.068 38.8772 322.194 39.6766C322.22 39.9058 322.267 40.1318 322.338 40.3515C322.486 40.8962 322.719 41.4144 323.029 41.8869C323.786 43.0424 324.939 43.8819 326.272 44.2472C327.308 44.5209 328.401 44.4776 329.412 44.1231C330.421 43.7685 331.302 43.1191 331.937 42.259C332.361 41.6897 332.654 41.034 332.795 40.3386C332.936 39.6433 332.921 38.9254 332.751 38.2365C332.481 37.2785 332.059 36.8749 331.964 36.89C331.822 36.9182 332.02 37.3431 332.133 38.3461C332.191 39.0318 332.09 39.7217 331.84 40.3628C331.588 41.004 331.194 41.5795 330.687 42.0453C330.177 42.5064 329.567 42.8422 328.904 43.0261C328.242 43.21 327.545 43.2368 326.87 43.1042C326.196 42.9718 325.561 42.6838 325.018 42.2632C324.474 41.8426 324.036 41.301 323.74 40.6817C323.516 40.2261 323.377 39.7337 323.33 39.2285C323.207 38.0676 323.545 36.9047 324.272 35.9902C325.003 35.077 326.059 34.4813 327.219 34.3277C327.974 34.2395 328.738 34.3274 329.453 34.5845C330.168 34.8416 330.812 35.2608 331.337 35.8092C332.029 36.5502 332.252 36.986 332.256 36.6662Z" fill="white"/>
<path d="M335.426 50.761C334.378 48.9387 333.471 47.0389 332.713 45.078C332.428 44.3821 332.056 43.7315 331.816 43.0229C331.048 40.5356 330.415 38.0082 329.922 35.4521C329.687 34.3344 329.358 33.2409 329.017 32.1598C328.41 30.8105 328.127 29.3381 328.192 27.8602C328.266 27.3611 329.456 27.269 330.657 27.4399C331.858 27.6124 333.078 28.045 333.255 28.8012C333.92 31.5292 334.401 34.299 334.692 37.0916C335.009 38.7865 335.544 40.4332 336.285 41.9904C336.928 43.7534 337.692 45.4709 338.568 47.1311C339.103 48.1407 339.711 49.1093 340.389 50.0291C341.363 51.4179 342.597 52.6066 344.021 53.5301C345.126 54.1024 346.34 54.4309 347.583 54.493C347.849 54.4989 348.113 54.457 348.368 54.4859C349.313 54.5746 349.582 54.8314 349.779 56.1006C349.823 56.3838 349.89 56.6677 349.919 56.9506C349.955 57.1716 349.946 57.3976 349.892 57.6151C349.838 57.8324 349.741 58.0367 349.605 58.2153C349.47 58.3939 349.3 58.5431 349.105 58.6539C348.91 58.7649 348.695 58.835 348.472 58.8602C346.884 59.0269 345.28 58.8534 343.767 58.3515C342.252 57.8495 340.862 57.0306 339.69 55.9495C337.991 54.4691 336.522 52.7427 335.334 50.8281L335.426 50.761Z" fill="#0B2330"/>
<path d="M386.266 78.82C386.525 78.9679 386.794 79.0971 387.071 79.2069C388.263 79.7625 388.973 79.5043 390.472 77.9385C390.814 77.5802 391.298 77.2259 391.616 76.8513C392.179 76.4288 392.721 75.9778 393.238 75.5002C395.414 73.3225 393.823 68.6674 392.414 69.6074C390.905 70.7905 389.505 72.1056 388.23 73.5369C387.624 74.2817 387.035 75.0345 386.481 75.8034C385.538 77.1084 385.454 78.285 386.266 78.82Z" fill="#0B2330"/>
<path d="M258.165 94.0237C257.697 94.2027 257.247 94.4242 256.821 94.6857C255.394 95.4526 254.186 96.5678 253.31 97.9274C252.428 99.0683 251.662 100.294 251.025 101.587C250.634 102.365 250.172 103.207 249.746 104.164C249.368 105.14 248.954 106.203 248.503 107.366C247.681 109.635 247.001 111.952 246.467 114.305L246.212 115.302C246.037 115.919 245.857 116.785 245.678 117.758C245.259 119.698 244.93 122.072 244.732 123.741C244.083 129.101 244.527 134.535 246.036 139.719C246.557 141.268 247.096 142.116 247.442 142.118C247.797 142.131 247.947 141.363 247.904 139.539C247.746 134.315 247.94 129.086 248.483 123.887C248.658 122.595 248.767 121.356 248.959 120.25C249.147 119.143 249.316 118.149 249.458 117.314C249.793 115.659 250.04 114.65 250.04 114.65C250.868 110.644 252.162 106.75 253.896 103.045C254.546 101.452 255.371 100.185 255.97 99.0177C256.536 97.8236 257.198 96.9616 257.616 96.2045C258.482 94.7143 258.717 93.9031 258.165 94.0237Z" fill="#0B2330"/>
<path d="M340.221 106.409L329.85 138.329L300.033 146.956L291.824 142.212L300.033 116.33L340.221 106.409Z" fill="#0B2330"/>
<path d="M298.521 130.625L296.407 136.81L295.35 139.903L295.107 140.607L295.048 140.735L294.921 141.016L295.236 141.25C295.18 141.228 295.63 141.496 295.912 141.669L296.844 142.232L300.191 144.265L300.349 144.369L301.088 144.16L302.808 143.653C303.955 143.315 305.102 142.98 306.258 142.675L328.454 136.896L328.617 136.472L328.852 135.827L329.535 133.866C330.895 129.957 332.137 125.983 333.333 122.054C334.703 116.948 336.357 111.923 338.29 107.001C339.598 103.969 342.543 109.306 340.707 115.103C339.429 119.138 338.106 123.16 336.74 127.17C336.042 129.171 335.343 131.175 334.644 133.18L333.564 136.181L332.994 137.747L332.012 140.562L328.923 141.376L327.226 141.779C326.092 142.043 324.955 142.306 323.816 142.569C317.462 144.013 311.011 146.087 304.59 147.845L299.761 149.176L289.559 143.09L292.678 133.747C294.106 129.481 295.535 125.215 296.963 120.949C297.604 119.002 298.246 117.056 298.886 115.113C301.613 114.468 304.337 113.825 307.056 113.183C309.508 112.597 311.946 111.995 314.373 111.376C319.471 110.066 324.404 108.518 329.407 107.073C330.508 106.755 331.574 106.401 332.692 106.104C336.831 105.001 338.229 104.975 339.417 105.946C339.703 106.141 339.968 106.365 340.208 106.615C340.835 107.437 339.329 108.616 336.352 109.639C327.519 112.673 318.024 115.141 308.464 117.508L304.631 118.446L302.71 118.909L302.51 118.956L302.508 118.955L302.504 118.953L302.49 118.949C301.206 122.843 299.921 126.743 298.633 130.649L298.521 130.625Z" fill="#0B2330"/>
<path d="M384.58 169.446C384.315 169.658 384.071 169.895 383.854 170.156C382.795 171.223 382.715 172.542 383.501 176.498C383.68 177.403 383.792 178.507 383.998 179.395C383.998 179.395 384.276 181.93 384.529 183.282C385.579 188.918 390.652 192.011 390.41 188.905C390.134 185.342 388.631 178.364 388.631 178.364C388.208 176.636 387.771 174.923 387.303 173.238C386.51 170.38 385.447 168.899 384.58 169.446Z" fill="#0B2330"/>
<path d="M391.494 209.154C391.223 209.432 390.984 209.739 390.778 210.069C389.738 211.449 389.69 213.277 390.585 218.867C390.79 220.146 390.932 221.695 391.163 222.953C391.163 222.953 391.508 226.512 391.798 228.42C393.004 236.378 398.205 241.201 397.881 236.85C397.51 231.858 395.814 221.986 395.814 221.986C395.343 219.537 394.856 217.106 394.341 214.712C393.467 210.65 392.357 208.48 391.494 209.154Z" fill="#0B2330"/>
<path d="M374.518 207.151C374.22 206.984 373.906 206.848 373.581 206.745C372.184 206.168 370.915 206.593 367.484 208.821C366.698 209.332 365.701 209.854 364.942 210.382C364.942 210.382 362.66 211.6 361.481 212.346C356.566 215.458 355.535 221.336 358.368 219.935C361.618 218.327 367.627 214.288 367.627 214.288C369.097 213.241 370.548 212.186 371.959 211.114C374.354 209.294 375.354 207.748 374.518 207.151Z" fill="#0B2330"/>
<path d="M345.464 146.761C345.727 146.978 346.013 147.167 346.314 147.325C347.588 148.138 348.913 147.943 352.683 146.35C353.547 145.986 354.62 145.647 355.46 145.259C355.46 145.259 357.921 144.461 359.213 143.933C364.598 141.732 366.648 136.126 363.612 137.007C360.13 138.021 353.504 140.943 353.504 140.943C351.873 141.716 350.259 142.501 348.681 143.308C346.002 144.68 344.746 146.027 345.464 146.761Z" fill="#0B2330"/>
</svg>
