<svg width="20" height="19" viewBox="0 0 20 19" fill="none" xmlns="http://www.w3.org/2000/svg">
<path d="M12.0315 14.8641L10.6431 17.1781C10.5765 17.2891 10.4822 17.3811 10.3695 17.4449C10.2568 17.5087 10.1295 17.5422 10 17.5422C9.8705 17.5422 9.7432 17.5087 9.6305 17.4449C9.5178 17.3811 9.4235 17.2891 9.3569 17.1781L7.9685 14.8641C7.9018 14.753 7.8076 14.6611 7.6949 14.5973C7.5822 14.5335 7.4549 14.5 7.3254 14.5H1.75C1.5511 14.5 1.3603 14.4209 1.2197 14.2803C1.079 14.1396 1 13.9489 1 13.75V1.75C1 1.5511 1.079 1.3603 1.2197 1.2197C1.3603 1.079 1.5511 1 1.75 1H18.25C18.4489 1 18.6397 1.079 18.7803 1.2197C18.921 1.3603 19 1.5511 19 1.75V13.75C19 13.9489 18.921 14.1397 18.7803 14.2803C18.6397 14.421 18.4489 14.5 18.25 14.5H12.6747C12.5451 14.5 12.4178 14.5335 12.3051 14.5973C12.1924 14.6611 12.0982 14.753 12.0315 14.8641Z" stroke="#0B2330" stroke-linecap="round" stroke-linejoin="round"/>
</svg>
